<?xml version="1.0" encoding="UTF-8" standalone="no"?>
<!DOCTYPE score-partwise PUBLIC "-//Recordare//DTD MusicXML 3.0 Partwise//EN" "http://www.musicxml.org/dtds/partwise.dtd">
<score-partwise version="3.0">
  <movement-title>music441c-442a</movement-title>
  <identification>
    <rights>©</rights>
    <encoding>
      <software>Finale 2014 for Windows</software>
      <software>Dolet Light for Finale 2014</software>
      <encoding-date>2014-01-22</encoding-date>
      <supports attribute="new-system" element="print" type="yes" value="yes"/>
      <supports attribute="new-page" element="print" type="yes" value="yes"/>
      <supports element="accidental" type="yes"/>
      <supports element="beam" type="yes"/>
      <supports element="stem" type="yes"/>
    </encoding>
  </identification>
  <defaults>
    <scaling>
      <millimeters>7.2319</millimeters>
      <tenths>40</tenths>
    </scaling>
    <page-layout>
      <page-height>1545</page-height>
      <page-width>1194</page-width>
      <page-margins type="both">
        <left-margin>140</left-margin>
        <right-margin>70</right-margin>
        <top-margin>70</top-margin>
        <bottom-margin>70</bottom-margin>
      </page-margins>
    </page-layout>
    <system-layout>
      <system-margins>
        <left-margin>0</left-margin>
        <right-margin>0</right-margin>
      </system-margins>
      <system-distance>121</system-distance>
      <top-system-distance>70</top-system-distance>
    </system-layout>
    <staff-layout>
      <staff-distance>80</staff-distance>
    </staff-layout>
    <appearance>
      <line-width type="stem">0.7487</line-width>
      <line-width type="beam">5</line-width>
      <line-width type="staff">0.7487</line-width>
      <line-width type="light barline">0.7487</line-width>
      <line-width type="heavy barline">5</line-width>
      <line-width type="leger">0.7487</line-width>
      <line-width type="ending">0.7487</line-width>
      <line-width type="wedge">0.7487</line-width>
      <line-width type="enclosure">0.7487</line-width>
      <line-width type="tuplet bracket">0.7487</line-width>
      <note-size type="grace">60</note-size>
      <note-size type="cue">60</note-size>
      <distance type="hyphen">120</distance>
      <distance type="beam">8</distance>
    </appearance>
    <music-font font-family="Maestro,engraved" font-size="20.5"/>
    <word-font font-family="Times New Roman" font-size="10.25"/>
  </defaults>
  <credit page="1">
    <credit-type>title</credit-type>
    <credit-words default-x="632" default-y="1475" font-size="24" justify="center" valign="top">music441c-442a</credit-words>
  </credit>
  <credit page="1">
    <credit-type>rights</credit-type>
    <credit-words default-x="632" default-y="53" font-size="10" justify="center" valign="bottom">©</credit-words>
  </credit>
  <credit page="1">
    <credit-words default-x="140" default-y="1478" font-size="12" valign="top">Score</credit-words>
  </credit>
  <part-list>
    <score-part id="P1">
      <part-name print-object="no">MusicXML Part</part-name>
      <score-instrument id="P1-I1">
        <instrument-name>ARIA Player</instrument-name>
        <virtual-instrument>
          <virtual-library>Garritan Instruments for Finale</virtual-library>
          <virtual-name>005. Keyboards/Steinway Piano</virtual-name>
        </virtual-instrument>
      </score-instrument>
      <midi-device>ARIA Player</midi-device>
      <midi-instrument id="P1-I1">
        <midi-channel>1</midi-channel>
        <midi-program>1</midi-program>
        <volume>80</volume>
        <pan>0</pan>
      </midi-instrument>
    </score-part>
  </part-list>
  <!--=========================================================-->
  <part id="P1">
    <measure number="1" width="628">
      <print>
        <system-layout>
          <system-margins>
            <left-margin>70</left-margin>
            <right-margin>0</right-margin>
          </system-margins>
          <top-system-distance>177</top-system-distance>
        </system-layout>
        <measure-numbering>system</measure-numbering>
      </print>
      <attributes>
        <divisions>96</divisions>
        <key>
          <fifths>0</fifths>
          <mode>major</mode>
        </key>
        <time>
          <beats>6</beats>
          <beat-type>8</beat-type>
        </time>
        <staves>2</staves>
        <clef number="1">
          <sign>G</sign>
          <line>2</line>
        </clef>
        <clef number="2">
          <sign>G</sign>
          <line>2</line>
        </clef>
      </attributes>
      <sound tempo="48"/>
      <direction placement="below">
        <direction-type>
          <dynamics default-x="85" default-y="-73" halign="center">
            <p/>
          </dynamics>
        </direction-type>
        <staff>1</staff>
        <sound dynamics="54"/>
      </direction>
      <note default-x="85">
        <pitch>
          <step>E</step>
          <octave>5</octave>
        </pitch>
        <duration>144</duration>
        <voice>1</voice>
        <type>quarter</type>
        <dot/>
        <stem default-y="-40">down</stem>
        <staff>1</staff>
      </note>
      <note default-x="85">
        <chord/>
        <pitch>
          <step>G</step>
          <octave>5</octave>
        </pitch>
        <duration>144</duration>
        <voice>1</voice>
        <type>quarter</type>
        <dot/>
        <stem>down</stem>
        <staff>1</staff>
      </note>
      <note default-x="85">
        <chord/>
        <pitch>
          <step>B</step>
          <octave>5</octave>
        </pitch>
        <duration>144</duration>
        <voice>1</voice>
        <type>quarter</type>
        <dot/>
        <stem>down</stem>
        <staff>1</staff>
      </note>
      <direction placement="below">
        <direction-type>
          <wedge default-y="-66" spread="0" type="crescendo"/>
        </direction-type>
        <staff>1</staff>
      </direction>
      <note default-x="248">
        <pitch>
          <step>E</step>
          <octave>4</octave>
        </pitch>
        <duration>12</duration>
        <voice>1</voice>
        <type>32nd</type>
        <stem default-y="12.5">up</stem>
        <staff>1</staff>
        <beam number="1">begin</beam>
        <beam number="2">begin</beam>
        <beam number="3">begin</beam>
      </note>
      <note default-x="279">
        <pitch>
          <step>F</step>
          <alter>1</alter>
          <octave>4</octave>
        </pitch>
        <duration>12</duration>
        <voice>1</voice>
        <type>32nd</type>
        <accidental>sharp</accidental>
        <stem default-y="14.5">up</stem>
        <staff>1</staff>
        <beam number="1">continue</beam>
        <beam number="2">continue</beam>
        <beam number="3">continue</beam>
      </note>
      <note default-x="308">
        <pitch>
          <step>G</step>
          <octave>4</octave>
        </pitch>
        <duration>12</duration>
        <voice>1</voice>
        <type>32nd</type>
        <stem default-y="16">up</stem>
        <staff>1</staff>
        <beam number="1">continue</beam>
        <beam number="2">continue</beam>
        <beam number="3">continue</beam>
      </note>
      <note default-x="338">
        <pitch>
          <step>A</step>
          <octave>4</octave>
        </pitch>
        <duration>12</duration>
        <voice>1</voice>
        <type>32nd</type>
        <stem default-y="17">up</stem>
        <staff>1</staff>
        <beam number="1">end</beam>
        <beam number="2">end</beam>
        <beam number="3">end</beam>
      </note>
      <note default-x="368">
        <pitch>
          <step>B</step>
          <octave>4</octave>
        </pitch>
        <duration>12</duration>
        <voice>1</voice>
        <type>32nd</type>
        <stem default-y="-63">down</stem>
        <staff>1</staff>
        <beam number="1">begin</beam>
        <beam number="2">begin</beam>
        <beam number="3">begin</beam>
      </note>
      <note default-x="398">
        <pitch>
          <step>C</step>
          <octave>5</octave>
        </pitch>
        <duration>12</duration>
        <voice>1</voice>
        <type>32nd</type>
        <stem default-y="-61">down</stem>
        <staff>1</staff>
        <beam number="1">continue</beam>
        <beam number="2">continue</beam>
        <beam number="3">continue</beam>
      </note>
      <note default-x="428">
        <pitch>
          <step>D</step>
          <octave>5</octave>
        </pitch>
        <duration>12</duration>
        <voice>1</voice>
        <type>32nd</type>
        <stem default-y="-59">down</stem>
        <staff>1</staff>
        <beam number="1">continue</beam>
        <beam number="2">continue</beam>
        <beam number="3">continue</beam>
      </note>
      <direction>
        <direction-type>
          <wedge spread="15" type="stop"/>
        </direction-type>
        <staff>1</staff>
      </direction>
      <note default-x="458">
        <pitch>
          <step>E</step>
          <octave>5</octave>
        </pitch>
        <duration>12</duration>
        <voice>1</voice>
        <type>32nd</type>
        <stem default-y="-57">down</stem>
        <staff>1</staff>
        <beam number="1">end</beam>
        <beam number="2">end</beam>
        <beam number="3">end</beam>
      </note>
      <note default-x="488">
        <pitch>
          <step>F</step>
          <alter>1</alter>
          <octave>5</octave>
        </pitch>
        <duration>8</duration>
        <voice>1</voice>
        <type>32nd</type>
        <accidental>sharp</accidental>
        <time-modification>
          <actual-notes>6</actual-notes>
          <normal-notes>4</normal-notes>
        </time-modification>
        <stem default-y="-45">down</stem>
        <staff>1</staff>
        <beam number="1">begin</beam>
        <beam number="2">begin</beam>
        <beam number="3">begin</beam>
        <notations>
          <tuplet number="1" placement="below" type="start"/>
        </notations>
      </note>
      <note default-x="511">
        <pitch>
          <step>G</step>
          <octave>5</octave>
        </pitch>
        <duration>8</duration>
        <voice>1</voice>
        <type>32nd</type>
        <time-modification>
          <actual-notes>6</actual-notes>
          <normal-notes>4</normal-notes>
        </time-modification>
        <stem default-y="-44.5">down</stem>
        <staff>1</staff>
        <beam number="1">continue</beam>
        <beam number="2">continue</beam>
        <beam number="3">continue</beam>
      </note>
      <note default-x="534">
        <pitch>
          <step>A</step>
          <octave>5</octave>
        </pitch>
        <duration>8</duration>
        <voice>1</voice>
        <type>32nd</type>
        <time-modification>
          <actual-notes>6</actual-notes>
          <normal-notes>4</normal-notes>
        </time-modification>
        <stem default-y="-44">down</stem>
        <staff>1</staff>
        <beam number="1">continue</beam>
        <beam number="2">continue</beam>
        <beam number="3">continue</beam>
      </note>
      <note default-x="557">
        <pitch>
          <step>B</step>
          <octave>5</octave>
        </pitch>
        <duration>8</duration>
        <voice>1</voice>
        <type>32nd</type>
        <time-modification>
          <actual-notes>6</actual-notes>
          <normal-notes>4</normal-notes>
        </time-modification>
        <stem default-y="-43.5">down</stem>
        <staff>1</staff>
        <beam number="1">continue</beam>
        <beam number="2">continue</beam>
        <beam number="3">continue</beam>
      </note>
      <note default-x="580">
        <pitch>
          <step>C</step>
          <octave>6</octave>
        </pitch>
        <duration>8</duration>
        <voice>1</voice>
        <type>32nd</type>
        <time-modification>
          <actual-notes>6</actual-notes>
          <normal-notes>4</normal-notes>
        </time-modification>
        <stem default-y="-43">down</stem>
        <staff>1</staff>
        <beam number="1">continue</beam>
        <beam number="2">continue</beam>
        <beam number="3">continue</beam>
      </note>
      <note default-x="603">
        <pitch>
          <step>D</step>
          <octave>6</octave>
        </pitch>
        <duration>8</duration>
        <voice>1</voice>
        <type>32nd</type>
        <time-modification>
          <actual-notes>6</actual-notes>
          <normal-notes>4</normal-notes>
        </time-modification>
        <stem default-y="-43">down</stem>
        <staff>1</staff>
        <beam number="1">end</beam>
        <beam number="2">end</beam>
        <beam number="3">end</beam>
        <notations>
          <tuplet number="1" type="stop"/>
        </notations>
      </note>
      <backup>
        <duration>288</duration>
      </backup>
      <note default-x="85">
        <pitch>
          <step>E</step>
          <octave>4</octave>
        </pitch>
        <duration>144</duration>
        <voice>3</voice>
        <type>quarter</type>
        <dot/>
        <stem default-y="15.5">up</stem>
        <staff>2</staff>
      </note>
      <note default-x="85">
        <chord/>
        <pitch>
          <step>G</step>
          <octave>4</octave>
        </pitch>
        <duration>144</duration>
        <voice>3</voice>
        <type>quarter</type>
        <dot/>
        <stem>up</stem>
        <staff>2</staff>
      </note>
      <note default-x="85">
        <chord/>
        <pitch>
          <step>B</step>
          <octave>4</octave>
        </pitch>
        <duration>144</duration>
        <voice>3</voice>
        <type>quarter</type>
        <dot/>
        <stem>up</stem>
        <staff>2</staff>
      </note>
      <note default-x="248">
        <rest/>
        <duration>48</duration>
        <voice>3</voice>
        <type>eighth</type>
        <staff>2</staff>
      </note>
      <note default-x="368">
        <rest/>
        <duration>96</duration>
        <voice>3</voice>
        <type>quarter</type>
        <staff>2</staff>
      </note>
    </measure>
    <!--=======================================================-->
    <measure number="2" width="286">
      <direction placement="below">
        <direction-type>
          <dynamics default-x="16" default-y="-73" halign="center">
            <f/>
          </dynamics>
        </direction-type>
        <staff>1</staff>
        <sound dynamics="98"/>
      </direction>
      <direction placement="below">
        <direction-type>
          <words default-y="-73" font-style="italic" relative-x="31">cresc.</words>
        </direction-type>
        <staff>1</staff>
      </direction>
      <note default-x="16">
        <pitch>
          <step>E</step>
          <octave>5</octave>
        </pitch>
        <duration>96</duration>
        <voice>1</voice>
        <type>quarter</type>
        <stem default-y="-40">down</stem>
        <staff>1</staff>
      </note>
      <note default-x="16">
        <chord/>
        <pitch>
          <step>G</step>
          <octave>5</octave>
        </pitch>
        <duration>96</duration>
        <voice>1</voice>
        <type>quarter</type>
        <stem>down</stem>
        <staff>1</staff>
      </note>
      <note default-x="16">
        <chord/>
        <pitch>
          <step>C</step>
          <octave>6</octave>
        </pitch>
        <duration>96</duration>
        <voice>1</voice>
        <type>quarter</type>
        <stem>down</stem>
        <staff>1</staff>
      </note>
      <note default-x="16">
        <chord/>
        <pitch>
          <step>E</step>
          <octave>6</octave>
        </pitch>
        <duration>96</duration>
        <voice>1</voice>
        <type>quarter</type>
        <stem>down</stem>
        <staff>1</staff>
      </note>
      <note default-x="94">
        <pitch>
          <step>F</step>
          <octave>5</octave>
        </pitch>
        <duration>96</duration>
        <voice>1</voice>
        <type>quarter</type>
        <stem default-y="-35">down</stem>
        <staff>1</staff>
      </note>
      <note default-x="94">
        <chord/>
        <pitch>
          <step>D</step>
          <octave>6</octave>
        </pitch>
        <duration>96</duration>
        <voice>1</voice>
        <type>quarter</type>
        <stem>down</stem>
        <staff>1</staff>
      </note>
      <note default-x="94">
        <chord/>
        <pitch>
          <step>F</step>
          <octave>6</octave>
        </pitch>
        <duration>96</duration>
        <voice>1</voice>
        <type>quarter</type>
        <stem>down</stem>
        <staff>1</staff>
      </note>
      <note default-x="189">
        <pitch>
          <step>G</step>
          <octave>5</octave>
        </pitch>
        <duration>96</duration>
        <voice>1</voice>
        <type>quarter</type>
        <stem default-y="-30.5">down</stem>
        <staff>1</staff>
      </note>
      <note default-x="189">
        <chord/>
        <pitch>
          <step>E</step>
          <octave>6</octave>
        </pitch>
        <duration>96</duration>
        <voice>1</voice>
        <type>quarter</type>
        <stem>down</stem>
        <staff>1</staff>
      </note>
      <note default-x="189">
        <chord/>
        <pitch>
          <step>G</step>
          <octave>6</octave>
        </pitch>
        <duration>96</duration>
        <voice>1</voice>
        <type>quarter</type>
        <stem>down</stem>
        <staff>1</staff>
      </note>
      <backup>
        <duration>288</duration>
      </backup>
      <note default-x="16">
        <pitch>
          <step>C</step>
          <octave>4</octave>
        </pitch>
        <duration>96</duration>
        <voice>3</voice>
        <type>quarter</type>
        <stem default-y="14">up</stem>
        <staff>2</staff>
      </note>
      <note default-x="16">
        <chord/>
        <pitch>
          <step>E</step>
          <octave>4</octave>
        </pitch>
        <duration>96</duration>
        <voice>3</voice>
        <type>quarter</type>
        <stem>up</stem>
        <staff>2</staff>
      </note>
      <note default-x="16">
        <chord/>
        <pitch>
          <step>G</step>
          <octave>4</octave>
        </pitch>
        <duration>96</duration>
        <voice>3</voice>
        <type>quarter</type>
        <stem>up</stem>
        <staff>2</staff>
      </note>
      <note default-x="16">
        <chord/>
        <pitch>
          <step>C</step>
          <octave>5</octave>
        </pitch>
        <duration>96</duration>
        <voice>3</voice>
        <type>quarter</type>
        <stem>up</stem>
        <staff>2</staff>
      </note>
      <attributes>
        <clef number="2">
          <sign>F</sign>
          <line>4</line>
        </clef>
      </attributes>
      <note default-x="94">
        <pitch>
          <step>C</step>
          <octave>3</octave>
        </pitch>
        <duration>48</duration>
        <voice>3</voice>
        <type>eighth</type>
        <stem default-y="-60">down</stem>
        <staff>2</staff>
        <beam number="1">begin</beam>
      </note>
      <note default-x="141">
        <pitch>
          <step>G</step>
          <octave>3</octave>
        </pitch>
        <duration>48</duration>
        <voice>3</voice>
        <type>eighth</type>
        <stem default-y="-62">down</stem>
        <staff>2</staff>
        <beam number="1">continue</beam>
      </note>
      <note default-x="141">
        <chord/>
        <pitch>
          <step>C</step>
          <octave>4</octave>
        </pitch>
        <duration>48</duration>
        <voice>3</voice>
        <type>eighth</type>
        <stem>down</stem>
        <staff>2</staff>
      </note>
      <note default-x="141">
        <chord/>
        <pitch>
          <step>E</step>
          <octave>4</octave>
        </pitch>
        <duration>48</duration>
        <voice>3</voice>
        <type>eighth</type>
        <stem>down</stem>
        <staff>2</staff>
      </note>
      <note default-x="189">
        <pitch>
          <step>E</step>
          <octave>3</octave>
        </pitch>
        <duration>48</duration>
        <voice>3</voice>
        <type>eighth</type>
        <stem default-y="-63">down</stem>
        <staff>2</staff>
        <beam number="1">continue</beam>
      </note>
      <note default-x="189">
        <chord/>
        <pitch>
          <step>G</step>
          <octave>3</octave>
        </pitch>
        <duration>48</duration>
        <voice>3</voice>
        <type>eighth</type>
        <stem>down</stem>
        <staff>2</staff>
      </note>
      <note default-x="189">
        <chord/>
        <pitch>
          <step>C</step>
          <octave>4</octave>
        </pitch>
        <duration>48</duration>
        <voice>3</voice>
        <type>eighth</type>
        <stem>down</stem>
        <staff>2</staff>
      </note>
      <note default-x="235">
        <pitch>
          <step>B</step>
          <octave>2</octave>
        </pitch>
        <duration>48</duration>
        <voice>3</voice>
        <type>eighth</type>
        <stem default-y="-65">down</stem>
        <staff>2</staff>
        <beam number="1">end</beam>
      </note>
      <note default-x="235">
        <chord/>
        <pitch>
          <step>E</step>
          <octave>3</octave>
        </pitch>
        <duration>48</duration>
        <voice>3</voice>
        <type>eighth</type>
        <stem>down</stem>
        <staff>2</staff>
      </note>
      <note default-x="235">
        <chord/>
        <pitch>
          <step>G</step>
          <octave>3</octave>
        </pitch>
        <duration>48</duration>
        <voice>3</voice>
        <type>eighth</type>
        <stem>down</stem>
        <staff>2</staff>
      </note>
    </measure>
    <!--=======================================================-->
    <measure number="3" width="417">
      <print new-system="yes">
        <system-layout>
          <system-distance>114</system-distance>
        </system-layout>
      </print>
      <note default-x="53">
        <pitch>
          <step>G</step>
          <octave>5</octave>
        </pitch>
        <duration>96</duration>
        <voice>1</voice>
        <type>quarter</type>
        <stem default-y="-30">down</stem>
        <staff>1</staff>
      </note>
      <note default-x="65">
        <chord/>
        <pitch>
          <step>A</step>
          <octave>5</octave>
        </pitch>
        <duration>96</duration>
        <voice>1</voice>
        <type>quarter</type>
        <stem>down</stem>
        <staff>1</staff>
      </note>
      <note default-x="65">
        <chord/>
        <pitch>
          <step>E</step>
          <octave>6</octave>
        </pitch>
        <duration>96</duration>
        <voice>1</voice>
        <type>quarter</type>
        <stem>down</stem>
        <staff>1</staff>
      </note>
      <note default-x="65">
        <chord/>
        <pitch>
          <step>G</step>
          <octave>6</octave>
        </pitch>
        <duration>96</duration>
        <voice>1</voice>
        <type>quarter</type>
        <stem>down</stem>
        <staff>1</staff>
      </note>
      <note default-x="248">
        <pitch>
          <step>D</step>
          <octave>6</octave>
        </pitch>
        <duration>192</duration>
        <voice>1</voice>
        <type>half</type>
        <stem default-y="-20.5">down</stem>
        <staff>1</staff>
        <notations>
          <ornaments>
            <trill-mark default-x="6" default-y="55" placement="above"/>
          </ornaments>
        </notations>
      </note>
      <note default-x="248">
        <chord/>
        <pitch>
          <step>F</step>
          <octave>6</octave>
        </pitch>
        <duration>192</duration>
        <voice>1</voice>
        <type>half</type>
        <stem>down</stem>
        <staff>1</staff>
      </note>
      <backup>
        <duration>288</duration>
      </backup>
      <note default-x="65">
        <pitch>
          <step>G</step>
          <octave>1</octave>
        </pitch>
        <duration>48</duration>
        <voice>3</voice>
        <type>eighth</type>
        <stem default-y="-4.5">up</stem>
        <staff>2</staff>
      </note>
      <note default-x="65">
        <chord/>
        <pitch>
          <step>G</step>
          <octave>2</octave>
        </pitch>
        <duration>48</duration>
        <voice>3</voice>
        <type>eighth</type>
        <stem>up</stem>
        <staff>2</staff>
      </note>
      <note default-x="114">
        <cue/>
        <pitch>
          <step>G</step>
          <octave>3</octave>
        </pitch>
        <duration>12</duration>
        <voice>3</voice>
        <type size="full">16th</type>
        <time-modification>
          <actual-notes>2</actual-notes>
          <normal-notes>1</normal-notes>
        </time-modification>
        <stem default-y="-47">down</stem>
        <staff>2</staff>
        <beam number="1">begin</beam>
        <beam number="2">begin</beam>
        <notations>
          <ornaments>
            <tremolo type="start">1</tremolo>
          </ornaments>
        </notations>
      </note>
      <note default-x="126">
        <cue/>
        <chord/>
        <pitch>
          <step>A</step>
          <octave>3</octave>
        </pitch>
        <duration>12</duration>
        <voice>3</voice>
        <type size="full">16th</type>
        <time-modification>
          <actual-notes>2</actual-notes>
          <normal-notes>1</normal-notes>
        </time-modification>
        <stem>down</stem>
        <staff>2</staff>
      </note>
      <note default-x="126">
        <cue/>
        <chord/>
        <pitch>
          <step>D</step>
          <octave>4</octave>
        </pitch>
        <duration>12</duration>
        <voice>3</voice>
        <type size="full">16th</type>
        <time-modification>
          <actual-notes>2</actual-notes>
          <normal-notes>1</normal-notes>
        </time-modification>
        <stem>down</stem>
        <staff>2</staff>
      </note>
      <note default-x="154">
        <cue/>
        <pitch>
          <step>F</step>
          <octave>4</octave>
        </pitch>
        <duration>12</duration>
        <voice>3</voice>
        <type size="full">16th</type>
        <time-modification>
          <actual-notes>2</actual-notes>
          <normal-notes>1</normal-notes>
        </time-modification>
        <stem default-y="-42.5">down</stem>
        <staff>2</staff>
        <beam number="1">end</beam>
        <beam number="2">end</beam>
        <notations>
          <ornaments>
            <tremolo type="stop">1</tremolo>
          </ornaments>
        </notations>
      </note>
      <note default-x="175">
        <cue/>
        <pitch>
          <step>G</step>
          <octave>3</octave>
        </pitch>
        <duration>12</duration>
        <voice>3</voice>
        <type size="full">16th</type>
        <time-modification>
          <actual-notes>2</actual-notes>
          <normal-notes>1</normal-notes>
        </time-modification>
        <stem default-y="-47">down</stem>
        <staff>2</staff>
        <beam number="1">begin</beam>
        <beam number="2">begin</beam>
        <notations>
          <ornaments>
            <tremolo type="start">1</tremolo>
          </ornaments>
        </notations>
      </note>
      <note default-x="187">
        <cue/>
        <chord/>
        <pitch>
          <step>A</step>
          <octave>3</octave>
        </pitch>
        <duration>12</duration>
        <voice>3</voice>
        <type size="full">16th</type>
        <time-modification>
          <actual-notes>2</actual-notes>
          <normal-notes>1</normal-notes>
        </time-modification>
        <stem>down</stem>
        <staff>2</staff>
      </note>
      <note default-x="187">
        <cue/>
        <chord/>
        <pitch>
          <step>D</step>
          <octave>4</octave>
        </pitch>
        <duration>12</duration>
        <voice>3</voice>
        <type size="full">16th</type>
        <time-modification>
          <actual-notes>2</actual-notes>
          <normal-notes>1</normal-notes>
        </time-modification>
        <stem>down</stem>
        <staff>2</staff>
      </note>
      <note default-x="215">
        <cue/>
        <pitch>
          <step>F</step>
          <octave>4</octave>
        </pitch>
        <duration>12</duration>
        <voice>3</voice>
        <type size="full">16th</type>
        <time-modification>
          <actual-notes>2</actual-notes>
          <normal-notes>1</normal-notes>
        </time-modification>
        <stem default-y="-42.5">down</stem>
        <staff>2</staff>
        <beam number="1">end</beam>
        <beam number="2">end</beam>
        <notations>
          <ornaments>
            <tremolo type="stop">1</tremolo>
          </ornaments>
        </notations>
      </note>
      <note default-x="236">
        <cue/>
        <pitch>
          <step>G</step>
          <octave>3</octave>
        </pitch>
        <duration>96</duration>
        <voice>3</voice>
        <type size="full">32nd</type>
        <time-modification>
          <actual-notes>1</actual-notes>
          <normal-notes>8</normal-notes>
          <normal-type>16th</normal-type>
        </time-modification>
        <stem default-y="-47">down</stem>
        <notehead filled="no">normal</notehead>
        <staff>2</staff>
        <beam number="1">begin</beam>
        <beam number="2">begin</beam>
        <beam number="3">begin</beam>
        <notations>
          <tuplet bracket="no" number="1" show-number="none" type="start">
            <tuplet-actual>
              <tuplet-number>1</tuplet-number>
              <tuplet-type>16th</tuplet-type>
            </tuplet-actual>
            <tuplet-normal>
              <tuplet-number>1</tuplet-number>
              <tuplet-type>half</tuplet-type>
            </tuplet-normal>
          </tuplet>
        </notations>
      </note>
      <note default-x="248">
        <cue/>
        <chord/>
        <pitch>
          <step>A</step>
          <octave>3</octave>
        </pitch>
        <duration>96</duration>
        <voice>3</voice>
        <type size="full">32nd</type>
        <time-modification>
          <actual-notes>1</actual-notes>
          <normal-notes>8</normal-notes>
          <normal-type>16th</normal-type>
        </time-modification>
        <stem>down</stem>
        <notehead filled="no">normal</notehead>
        <staff>2</staff>
      </note>
      <note default-x="248">
        <cue/>
        <chord/>
        <pitch>
          <step>D</step>
          <octave>4</octave>
        </pitch>
        <duration>96</duration>
        <voice>3</voice>
        <type size="full">32nd</type>
        <time-modification>
          <actual-notes>1</actual-notes>
          <normal-notes>8</normal-notes>
          <normal-type>16th</normal-type>
        </time-modification>
        <stem>down</stem>
        <notehead filled="no">normal</notehead>
        <staff>2</staff>
      </note>
      <note default-x="332">
        <cue/>
        <pitch>
          <step>F</step>
          <octave>4</octave>
        </pitch>
        <duration>96</duration>
        <voice>3</voice>
        <type size="full">32nd</type>
        <time-modification>
          <actual-notes>1</actual-notes>
          <normal-notes>8</normal-notes>
          <normal-type>16th</normal-type>
        </time-modification>
        <stem default-y="-42.5">down</stem>
        <notehead filled="no">normal</notehead>
        <staff>2</staff>
        <beam number="1">end</beam>
        <beam number="2">end</beam>
        <beam number="3">end</beam>
        <notations>
          <tuplet number="1" type="stop"/>
        </notations>
      </note>
      <backup>
        <duration>288</duration>
      </backup>
      <forward>
        <duration>48</duration>
        <voice>4</voice>
        <staff>2</staff>
      </forward>
      <note print-object="no" print-spacing="no">
        <pitch>
          <step>G</step>
          <octave>3</octave>
        </pitch>
        <duration>8</duration>
        <voice>4</voice>
        <stem>down</stem>
        <staff>2</staff>
      </note>
      <note print-object="no" print-spacing="no">
        <chord/>
        <pitch>
          <step>A</step>
          <octave>3</octave>
        </pitch>
        <duration>8</duration>
        <voice>4</voice>
        <stem>down</stem>
        <staff>2</staff>
      </note>
      <note print-object="no" print-spacing="no">
        <chord/>
        <pitch>
          <step>D</step>
          <octave>4</octave>
        </pitch>
        <duration>8</duration>
        <voice>4</voice>
        <stem>down</stem>
        <staff>2</staff>
      </note>
      <note print-object="no" print-spacing="no">
        <pitch>
          <step>F</step>
          <octave>4</octave>
        </pitch>
        <duration>8</duration>
        <voice>4</voice>
        <stem>down</stem>
        <staff>2</staff>
      </note>
      <note print-object="no" print-spacing="no">
        <pitch>
          <step>G</step>
          <octave>3</octave>
        </pitch>
        <duration>8</duration>
        <voice>4</voice>
        <stem>down</stem>
        <staff>2</staff>
      </note>
      <note print-object="no" print-spacing="no">
        <chord/>
        <pitch>
          <step>A</step>
          <octave>3</octave>
        </pitch>
        <duration>8</duration>
        <voice>4</voice>
        <stem>down</stem>
        <staff>2</staff>
      </note>
      <note print-object="no" print-spacing="no">
        <chord/>
        <pitch>
          <step>D</step>
          <octave>4</octave>
        </pitch>
        <duration>8</duration>
        <voice>4</voice>
        <stem>down</stem>
        <staff>2</staff>
      </note>
      <forward>
        <duration>0</duration>
        <voice>4</voice>
        <staff>2</staff>
      </forward>
      <note print-object="no" print-spacing="no">
        <pitch>
          <step>G</step>
          <octave>3</octave>
        </pitch>
        <duration>8</duration>
        <voice>4</voice>
        <stem>down</stem>
        <staff>2</staff>
      </note>
      <note print-object="no" print-spacing="no">
        <chord/>
        <pitch>
          <step>A</step>
          <octave>3</octave>
        </pitch>
        <duration>8</duration>
        <voice>4</voice>
        <stem>down</stem>
        <staff>2</staff>
      </note>
      <note print-object="no" print-spacing="no">
        <chord/>
        <pitch>
          <step>D</step>
          <octave>4</octave>
        </pitch>
        <duration>8</duration>
        <voice>4</voice>
        <stem>down</stem>
        <staff>2</staff>
      </note>
      <note print-object="no" print-spacing="no">
        <pitch>
          <step>F</step>
          <octave>4</octave>
        </pitch>
        <duration>8</duration>
        <voice>4</voice>
        <stem>down</stem>
        <staff>2</staff>
      </note>
      <note print-object="no" print-spacing="no">
        <pitch>
          <step>G</step>
          <octave>3</octave>
        </pitch>
        <duration>8</duration>
        <voice>4</voice>
        <stem>down</stem>
        <staff>2</staff>
      </note>
      <note print-object="no" print-spacing="no">
        <chord/>
        <pitch>
          <step>A</step>
          <octave>3</octave>
        </pitch>
        <duration>8</duration>
        <voice>4</voice>
        <stem>down</stem>
        <staff>2</staff>
      </note>
      <note print-object="no" print-spacing="no">
        <chord/>
        <pitch>
          <step>D</step>
          <octave>4</octave>
        </pitch>
        <duration>8</duration>
        <voice>4</voice>
        <stem>down</stem>
        <staff>2</staff>
      </note>
      <forward>
        <duration>0</duration>
        <voice>4</voice>
        <staff>2</staff>
      </forward>
      <note print-object="no" print-spacing="no">
        <pitch>
          <step>G</step>
          <octave>3</octave>
        </pitch>
        <duration>8</duration>
        <voice>4</voice>
        <stem>down</stem>
        <staff>2</staff>
      </note>
      <note print-object="no" print-spacing="no">
        <chord/>
        <pitch>
          <step>A</step>
          <octave>3</octave>
        </pitch>
        <duration>8</duration>
        <voice>4</voice>
        <stem>down</stem>
        <staff>2</staff>
      </note>
      <note print-object="no" print-spacing="no">
        <chord/>
        <pitch>
          <step>D</step>
          <octave>4</octave>
        </pitch>
        <duration>8</duration>
        <voice>4</voice>
        <stem>down</stem>
        <staff>2</staff>
      </note>
      <note print-object="no" print-spacing="no">
        <pitch>
          <step>F</step>
          <octave>4</octave>
        </pitch>
        <duration>8</duration>
        <voice>4</voice>
        <stem>down</stem>
        <staff>2</staff>
      </note>
      <note print-object="no" print-spacing="no">
        <pitch>
          <step>G</step>
          <octave>3</octave>
        </pitch>
        <duration>8</duration>
        <voice>4</voice>
        <stem>down</stem>
        <staff>2</staff>
      </note>
      <note print-object="no" print-spacing="no">
        <chord/>
        <pitch>
          <step>A</step>
          <octave>3</octave>
        </pitch>
        <duration>8</duration>
        <voice>4</voice>
        <stem>down</stem>
        <staff>2</staff>
      </note>
      <note print-object="no" print-spacing="no">
        <chord/>
        <pitch>
          <step>D</step>
          <octave>4</octave>
        </pitch>
        <duration>8</duration>
        <voice>4</voice>
        <stem>down</stem>
        <staff>2</staff>
      </note>
      <note print-object="no" print-spacing="no">
        <pitch>
          <step>F</step>
          <octave>4</octave>
        </pitch>
        <duration>8</duration>
        <voice>4</voice>
        <stem>down</stem>
        <staff>2</staff>
      </note>
      <note print-object="no" print-spacing="no">
        <pitch>
          <step>G</step>
          <octave>3</octave>
        </pitch>
        <duration>8</duration>
        <voice>4</voice>
        <stem>down</stem>
        <staff>2</staff>
      </note>
      <note print-object="no" print-spacing="no">
        <chord/>
        <pitch>
          <step>A</step>
          <octave>3</octave>
        </pitch>
        <duration>8</duration>
        <voice>4</voice>
        <stem>down</stem>
        <staff>2</staff>
      </note>
      <note print-object="no" print-spacing="no">
        <chord/>
        <pitch>
          <step>D</step>
          <octave>4</octave>
        </pitch>
        <duration>8</duration>
        <voice>4</voice>
        <stem>down</stem>
        <staff>2</staff>
      </note>
      <note print-object="no" print-spacing="no">
        <pitch>
          <step>F</step>
          <octave>4</octave>
        </pitch>
        <duration>8</duration>
        <voice>4</voice>
        <stem>down</stem>
        <staff>2</staff>
      </note>
      <note print-object="no" print-spacing="no">
        <pitch>
          <step>G</step>
          <octave>3</octave>
        </pitch>
        <duration>8</duration>
        <voice>4</voice>
        <stem>down</stem>
        <staff>2</staff>
      </note>
      <note print-object="no" print-spacing="no">
        <chord/>
        <pitch>
          <step>A</step>
          <octave>3</octave>
        </pitch>
        <duration>8</duration>
        <voice>4</voice>
        <stem>down</stem>
        <staff>2</staff>
      </note>
      <note print-object="no" print-spacing="no">
        <chord/>
        <pitch>
          <step>D</step>
          <octave>4</octave>
        </pitch>
        <duration>8</duration>
        <voice>4</voice>
        <stem>down</stem>
        <staff>2</staff>
      </note>
      <note print-object="no" print-spacing="no">
        <pitch>
          <step>F</step>
          <octave>4</octave>
        </pitch>
        <duration>8</duration>
        <voice>4</voice>
        <stem>down</stem>
        <staff>2</staff>
      </note>
      <note print-object="no" print-spacing="no">
        <pitch>
          <step>G</step>
          <octave>3</octave>
        </pitch>
        <duration>8</duration>
        <voice>4</voice>
        <stem>down</stem>
        <staff>2</staff>
      </note>
      <note print-object="no" print-spacing="no">
        <chord/>
        <pitch>
          <step>A</step>
          <octave>3</octave>
        </pitch>
        <duration>8</duration>
        <voice>4</voice>
        <stem>down</stem>
        <staff>2</staff>
      </note>
      <note print-object="no" print-spacing="no">
        <chord/>
        <pitch>
          <step>D</step>
          <octave>4</octave>
        </pitch>
        <duration>8</duration>
        <voice>4</voice>
        <stem>down</stem>
        <staff>2</staff>
      </note>
      <note print-object="no" print-spacing="no">
        <pitch>
          <step>F</step>
          <octave>4</octave>
        </pitch>
        <duration>8</duration>
        <voice>4</voice>
        <stem>down</stem>
        <staff>2</staff>
      </note>
      <note print-object="no" print-spacing="no">
        <pitch>
          <step>G</step>
          <octave>3</octave>
        </pitch>
        <duration>8</duration>
        <voice>4</voice>
        <stem>down</stem>
        <staff>2</staff>
      </note>
      <note print-object="no" print-spacing="no">
        <chord/>
        <pitch>
          <step>A</step>
          <octave>3</octave>
        </pitch>
        <duration>8</duration>
        <voice>4</voice>
        <stem>down</stem>
        <staff>2</staff>
      </note>
      <note print-object="no" print-spacing="no">
        <chord/>
        <pitch>
          <step>D</step>
          <octave>4</octave>
        </pitch>
        <duration>8</duration>
        <voice>4</voice>
        <stem>down</stem>
        <staff>2</staff>
      </note>
      <note print-object="no" print-spacing="no">
        <pitch>
          <step>F</step>
          <octave>4</octave>
        </pitch>
        <duration>8</duration>
        <voice>4</voice>
        <stem>down</stem>
        <staff>2</staff>
      </note>
      <note print-object="no" print-spacing="no">
        <pitch>
          <step>G</step>
          <octave>3</octave>
        </pitch>
        <duration>8</duration>
        <voice>4</voice>
        <stem>down</stem>
        <staff>2</staff>
      </note>
      <note print-object="no" print-spacing="no">
        <chord/>
        <pitch>
          <step>A</step>
          <octave>3</octave>
        </pitch>
        <duration>8</duration>
        <voice>4</voice>
        <stem>down</stem>
        <staff>2</staff>
      </note>
      <note print-object="no" print-spacing="no">
        <chord/>
        <pitch>
          <step>D</step>
          <octave>4</octave>
        </pitch>
        <duration>8</duration>
        <voice>4</voice>
        <stem>down</stem>
        <staff>2</staff>
      </note>
      <note print-object="no" print-spacing="no">
        <pitch>
          <step>F</step>
          <octave>4</octave>
        </pitch>
        <duration>8</duration>
        <voice>4</voice>
        <stem>down</stem>
        <staff>2</staff>
      </note>
      <note print-object="no" print-spacing="no">
        <pitch>
          <step>G</step>
          <octave>3</octave>
        </pitch>
        <duration>8</duration>
        <voice>4</voice>
        <stem>down</stem>
        <staff>2</staff>
      </note>
      <note print-object="no" print-spacing="no">
        <chord/>
        <pitch>
          <step>A</step>
          <octave>3</octave>
        </pitch>
        <duration>8</duration>
        <voice>4</voice>
        <stem>down</stem>
        <staff>2</staff>
      </note>
      <note print-object="no" print-spacing="no">
        <chord/>
        <pitch>
          <step>D</step>
          <octave>4</octave>
        </pitch>
        <duration>8</duration>
        <voice>4</voice>
        <stem>down</stem>
        <staff>2</staff>
      </note>
      <note print-object="no" print-spacing="no">
        <pitch>
          <step>F</step>
          <octave>4</octave>
        </pitch>
        <duration>8</duration>
        <voice>4</voice>
        <stem>down</stem>
        <staff>2</staff>
      </note>
      <note print-object="no" print-spacing="no">
        <pitch>
          <step>G</step>
          <octave>3</octave>
        </pitch>
        <duration>8</duration>
        <voice>4</voice>
        <stem>down</stem>
        <staff>2</staff>
      </note>
      <note print-object="no" print-spacing="no">
        <chord/>
        <pitch>
          <step>A</step>
          <octave>3</octave>
        </pitch>
        <duration>8</duration>
        <voice>4</voice>
        <stem>down</stem>
        <staff>2</staff>
      </note>
      <note print-object="no" print-spacing="no">
        <chord/>
        <pitch>
          <step>D</step>
          <octave>4</octave>
        </pitch>
        <duration>8</duration>
        <voice>4</voice>
        <stem>down</stem>
        <staff>2</staff>
      </note>
      <note print-object="no" print-spacing="no">
        <pitch>
          <step>F</step>
          <octave>4</octave>
        </pitch>
        <duration>8</duration>
        <voice>4</voice>
        <stem>down</stem>
        <staff>2</staff>
      </note>
      <note print-object="no" print-spacing="no">
        <pitch>
          <step>G</step>
          <octave>3</octave>
        </pitch>
        <duration>8</duration>
        <voice>4</voice>
        <stem>down</stem>
        <staff>2</staff>
      </note>
      <note print-object="no" print-spacing="no">
        <chord/>
        <pitch>
          <step>A</step>
          <octave>3</octave>
        </pitch>
        <duration>8</duration>
        <voice>4</voice>
        <stem>down</stem>
        <staff>2</staff>
      </note>
      <note print-object="no" print-spacing="no">
        <chord/>
        <pitch>
          <step>D</step>
          <octave>4</octave>
        </pitch>
        <duration>8</duration>
        <voice>4</voice>
        <stem>down</stem>
        <staff>2</staff>
      </note>
      <note print-object="no" print-spacing="no">
        <pitch>
          <step>F</step>
          <octave>4</octave>
        </pitch>
        <duration>8</duration>
        <voice>4</voice>
        <stem>down</stem>
        <staff>2</staff>
      </note>
      <note print-object="no" print-spacing="no">
        <pitch>
          <step>G</step>
          <octave>3</octave>
        </pitch>
        <duration>8</duration>
        <voice>4</voice>
        <stem>down</stem>
        <staff>2</staff>
      </note>
      <note print-object="no" print-spacing="no">
        <chord/>
        <pitch>
          <step>A</step>
          <octave>3</octave>
        </pitch>
        <duration>8</duration>
        <voice>4</voice>
        <stem>down</stem>
        <staff>2</staff>
      </note>
      <note print-object="no" print-spacing="no">
        <chord/>
        <pitch>
          <step>D</step>
          <octave>4</octave>
        </pitch>
        <duration>8</duration>
        <voice>4</voice>
        <stem>down</stem>
        <staff>2</staff>
      </note>
      <note print-object="no" print-spacing="no">
        <pitch>
          <step>F</step>
          <octave>4</octave>
        </pitch>
        <duration>8</duration>
        <voice>4</voice>
        <stem>down</stem>
        <staff>2</staff>
      </note>
      <note print-object="no" print-spacing="no">
        <pitch>
          <step>G</step>
          <octave>3</octave>
        </pitch>
        <duration>8</duration>
        <voice>4</voice>
        <stem>down</stem>
        <staff>2</staff>
      </note>
      <note print-object="no" print-spacing="no">
        <chord/>
        <pitch>
          <step>A</step>
          <octave>3</octave>
        </pitch>
        <duration>8</duration>
        <voice>4</voice>
        <stem>down</stem>
        <staff>2</staff>
      </note>
      <note print-object="no" print-spacing="no">
        <chord/>
        <pitch>
          <step>D</step>
          <octave>4</octave>
        </pitch>
        <duration>8</duration>
        <voice>4</voice>
        <stem>down</stem>
        <staff>2</staff>
      </note>
      <note print-object="no" print-spacing="no">
        <pitch>
          <step>F</step>
          <octave>4</octave>
        </pitch>
        <duration>8</duration>
        <voice>4</voice>
        <stem>down</stem>
        <staff>2</staff>
      </note>
      <forward>
        <duration>1</duration>
        <voice>4</voice>
        <staff>2</staff>
      </forward>
    </measure>
    <!--=======================================================-->
    <measure number="4" width="210">
      <note default-x="25">
        <pitch>
          <step>D</step>
          <octave>6</octave>
        </pitch>
        <duration>192</duration>
        <voice>1</voice>
        <type>half</type>
        <stem default-y="-20.5">down</stem>
        <staff>1</staff>
        <notations>
          <ornaments>
            <trill-mark default-x="4" default-y="55" placement="above"/>
          </ornaments>
        </notations>
      </note>
      <note default-x="25">
        <chord/>
        <pitch>
          <step>F</step>
          <octave>6</octave>
        </pitch>
        <duration>192</duration>
        <voice>1</voice>
        <type>half</type>
        <stem>down</stem>
        <staff>1</staff>
      </note>
      <note default-x="135">
        <pitch>
          <step>C</step>
          <alter>1</alter>
          <octave>6</octave>
        </pitch>
        <duration>72</duration>
        <voice>1</voice>
        <type>eighth</type>
        <dot/>
        <accidental>sharp</accidental>
        <stem default-y="-25">down</stem>
        <staff>1</staff>
        <beam number="1">begin</beam>
      </note>
      <note default-x="135">
        <chord/>
        <pitch>
          <step>E</step>
          <octave>6</octave>
        </pitch>
        <duration>72</duration>
        <voice>1</voice>
        <type>eighth</type>
        <dot/>
        <stem>down</stem>
        <staff>1</staff>
      </note>
      <note default-x="185">
        <pitch>
          <step>D</step>
          <octave>6</octave>
        </pitch>
        <duration>24</duration>
        <voice>1</voice>
        <type>16th</type>
        <stem default-y="-22.5">down</stem>
        <staff>1</staff>
        <beam number="1">end</beam>
        <beam number="2">backward hook</beam>
      </note>
      <note default-x="185">
        <chord/>
        <pitch>
          <step>F</step>
          <octave>6</octave>
        </pitch>
        <duration>24</duration>
        <voice>1</voice>
        <type>16th</type>
        <stem>down</stem>
        <staff>1</staff>
      </note>
      <backup>
        <duration>288</duration>
      </backup>
      <note default-x="13">
        <cue/>
        <pitch>
          <step>G</step>
          <octave>3</octave>
        </pitch>
        <duration>144</duration>
        <voice>3</voice>
        <type size="full">32nd</type>
        <dot/>
        <time-modification>
          <actual-notes>3</actual-notes>
          <normal-notes>24</normal-notes>
          <normal-type>32nd</normal-type>
        </time-modification>
        <stem default-y="-47">down</stem>
        <notehead filled="no">normal</notehead>
        <staff>2</staff>
        <beam number="1">begin</beam>
        <beam number="2">begin</beam>
        <beam number="3">begin</beam>
        <notations>
          <tuplet bracket="no" number="1" show-number="none" type="start">
            <tuplet-actual>
              <tuplet-number>3</tuplet-number>
              <tuplet-type>32nd</tuplet-type>
            </tuplet-actual>
            <tuplet-normal>
              <tuplet-number>3</tuplet-number>
              <tuplet-type>quarter</tuplet-type>
            </tuplet-normal>
          </tuplet>
        </notations>
      </note>
      <note default-x="25">
        <cue/>
        <chord/>
        <pitch>
          <step>A</step>
          <octave>3</octave>
        </pitch>
        <duration>144</duration>
        <voice>3</voice>
        <type size="full">32nd</type>
        <dot/>
        <time-modification>
          <actual-notes>3</actual-notes>
          <normal-notes>24</normal-notes>
          <normal-type>32nd</normal-type>
        </time-modification>
        <stem>down</stem>
        <notehead filled="no">normal</notehead>
        <staff>2</staff>
      </note>
      <note default-x="25">
        <cue/>
        <chord/>
        <pitch>
          <step>D</step>
          <octave>4</octave>
        </pitch>
        <duration>144</duration>
        <voice>3</voice>
        <type size="full">32nd</type>
        <dot/>
        <time-modification>
          <actual-notes>3</actual-notes>
          <normal-notes>24</normal-notes>
          <normal-type>32nd</normal-type>
        </time-modification>
        <stem>down</stem>
        <notehead filled="no">normal</notehead>
        <staff>2</staff>
      </note>
      <note default-x="107">
        <cue/>
        <pitch>
          <step>F</step>
          <octave>4</octave>
        </pitch>
        <duration>144</duration>
        <voice>3</voice>
        <type size="full">32nd</type>
        <dot/>
        <time-modification>
          <actual-notes>3</actual-notes>
          <normal-notes>24</normal-notes>
          <normal-type>32nd</normal-type>
        </time-modification>
        <stem default-y="-42.5">down</stem>
        <notehead filled="no">normal</notehead>
        <staff>2</staff>
        <beam number="1">end</beam>
        <beam number="2">end</beam>
        <beam number="3">end</beam>
        <notations>
          <tuplet number="1" type="stop"/>
        </notations>
      </note>
      <backup>
        <duration>288</duration>
      </backup>
      <note print-object="no" print-spacing="no">
        <pitch>
          <step>G</step>
          <octave>3</octave>
        </pitch>
        <duration>18</duration>
        <voice>4</voice>
        <type>32nd</type>
        <dot/>
        <stem>down</stem>
        <staff>2</staff>
        <beam number="1">begin</beam>
        <beam number="2">begin</beam>
        <beam number="3">begin</beam>
      </note>
      <note print-object="no" print-spacing="no">
        <chord/>
        <pitch>
          <step>A</step>
          <octave>3</octave>
        </pitch>
        <duration>18</duration>
        <voice>4</voice>
        <type>32nd</type>
        <dot/>
        <stem>down</stem>
        <staff>2</staff>
      </note>
      <note print-object="no" print-spacing="no">
        <chord/>
        <pitch>
          <step>D</step>
          <octave>4</octave>
        </pitch>
        <duration>18</duration>
        <voice>4</voice>
        <type>32nd</type>
        <dot/>
        <stem>down</stem>
        <staff>2</staff>
      </note>
      <note print-object="no" print-spacing="no">
        <pitch>
          <step>F</step>
          <octave>4</octave>
        </pitch>
        <duration>18</duration>
        <voice>4</voice>
        <type>32nd</type>
        <dot/>
        <stem>down</stem>
        <staff>2</staff>
        <beam number="1">continue</beam>
        <beam number="2">continue</beam>
        <beam number="3">continue</beam>
      </note>
      <note print-object="no" print-spacing="no">
        <pitch>
          <step>G</step>
          <octave>3</octave>
        </pitch>
        <duration>18</duration>
        <voice>4</voice>
        <type>32nd</type>
        <dot/>
        <stem>down</stem>
        <staff>2</staff>
        <beam number="1">continue</beam>
        <beam number="2">continue</beam>
        <beam number="3">continue</beam>
      </note>
      <note print-object="no" print-spacing="no">
        <chord/>
        <pitch>
          <step>A</step>
          <octave>3</octave>
        </pitch>
        <duration>18</duration>
        <voice>4</voice>
        <type>32nd</type>
        <dot/>
        <stem>down</stem>
        <staff>2</staff>
      </note>
      <note print-object="no" print-spacing="no">
        <chord/>
        <pitch>
          <step>D</step>
          <octave>4</octave>
        </pitch>
        <duration>18</duration>
        <voice>4</voice>
        <type>32nd</type>
        <dot/>
        <stem>down</stem>
        <staff>2</staff>
      </note>
      <note print-object="no" print-spacing="no">
        <pitch>
          <step>F</step>
          <octave>4</octave>
        </pitch>
        <duration>18</duration>
        <voice>4</voice>
        <type>32nd</type>
        <dot/>
        <stem>down</stem>
        <staff>2</staff>
        <beam number="1">continue</beam>
        <beam number="2">continue</beam>
        <beam number="3">continue</beam>
      </note>
      <note print-object="no" print-spacing="no">
        <pitch>
          <step>G</step>
          <octave>3</octave>
        </pitch>
        <duration>18</duration>
        <voice>4</voice>
        <type>32nd</type>
        <dot/>
        <stem>down</stem>
        <staff>2</staff>
        <beam number="1">continue</beam>
        <beam number="2">continue</beam>
        <beam number="3">continue</beam>
      </note>
      <note print-object="no" print-spacing="no">
        <chord/>
        <pitch>
          <step>A</step>
          <octave>3</octave>
        </pitch>
        <duration>18</duration>
        <voice>4</voice>
        <type>32nd</type>
        <dot/>
        <stem>down</stem>
        <staff>2</staff>
      </note>
      <note print-object="no" print-spacing="no">
        <chord/>
        <pitch>
          <step>D</step>
          <octave>4</octave>
        </pitch>
        <duration>18</duration>
        <voice>4</voice>
        <type>32nd</type>
        <dot/>
        <stem>down</stem>
        <staff>2</staff>
      </note>
      <note print-object="no" print-spacing="no">
        <pitch>
          <step>F</step>
          <octave>4</octave>
        </pitch>
        <duration>18</duration>
        <voice>4</voice>
        <type>32nd</type>
        <dot/>
        <stem>down</stem>
        <staff>2</staff>
        <beam number="1">continue</beam>
        <beam number="2">continue</beam>
        <beam number="3">continue</beam>
      </note>
      <note print-object="no" print-spacing="no">
        <pitch>
          <step>G</step>
          <octave>3</octave>
        </pitch>
        <duration>18</duration>
        <voice>4</voice>
        <type>32nd</type>
        <dot/>
        <stem>down</stem>
        <staff>2</staff>
        <beam number="1">continue</beam>
        <beam number="2">continue</beam>
        <beam number="3">continue</beam>
      </note>
      <note print-object="no" print-spacing="no">
        <chord/>
        <pitch>
          <step>A</step>
          <octave>3</octave>
        </pitch>
        <duration>18</duration>
        <voice>4</voice>
        <type>32nd</type>
        <dot/>
        <stem>down</stem>
        <staff>2</staff>
      </note>
      <note print-object="no" print-spacing="no">
        <chord/>
        <pitch>
          <step>D</step>
          <octave>4</octave>
        </pitch>
        <duration>18</duration>
        <voice>4</voice>
        <type>32nd</type>
        <dot/>
        <stem>down</stem>
        <staff>2</staff>
      </note>
      <note print-object="no" print-spacing="no">
        <pitch>
          <step>F</step>
          <octave>4</octave>
        </pitch>
        <duration>18</duration>
        <voice>4</voice>
        <type>32nd</type>
        <dot/>
        <stem>down</stem>
        <staff>2</staff>
        <beam number="1">continue</beam>
        <beam number="2">continue</beam>
        <beam number="3">continue</beam>
      </note>
      <note print-object="no" print-spacing="no">
        <pitch>
          <step>G</step>
          <octave>3</octave>
        </pitch>
        <duration>18</duration>
        <voice>4</voice>
        <type>32nd</type>
        <dot/>
        <stem>down</stem>
        <staff>2</staff>
        <beam number="1">continue</beam>
        <beam number="2">continue</beam>
        <beam number="3">continue</beam>
      </note>
      <note print-object="no" print-spacing="no">
        <chord/>
        <pitch>
          <step>A</step>
          <octave>3</octave>
        </pitch>
        <duration>18</duration>
        <voice>4</voice>
        <type>32nd</type>
        <dot/>
        <stem>down</stem>
        <staff>2</staff>
      </note>
      <note print-object="no" print-spacing="no">
        <chord/>
        <pitch>
          <step>D</step>
          <octave>4</octave>
        </pitch>
        <duration>18</duration>
        <voice>4</voice>
        <type>32nd</type>
        <dot/>
        <stem>down</stem>
        <staff>2</staff>
      </note>
      <note print-object="no" print-spacing="no">
        <pitch>
          <step>F</step>
          <octave>4</octave>
        </pitch>
        <duration>18</duration>
        <voice>4</voice>
        <type>32nd</type>
        <dot/>
        <stem>down</stem>
        <staff>2</staff>
        <beam number="1">continue</beam>
        <beam number="2">continue</beam>
        <beam number="3">continue</beam>
      </note>
      <note print-object="no" print-spacing="no">
        <pitch>
          <step>G</step>
          <octave>3</octave>
        </pitch>
        <duration>18</duration>
        <voice>4</voice>
        <type>32nd</type>
        <dot/>
        <stem>down</stem>
        <staff>2</staff>
        <beam number="1">continue</beam>
        <beam number="2">continue</beam>
        <beam number="3">continue</beam>
      </note>
      <note print-object="no" print-spacing="no">
        <chord/>
        <pitch>
          <step>A</step>
          <octave>3</octave>
        </pitch>
        <duration>18</duration>
        <voice>4</voice>
        <type>32nd</type>
        <dot/>
        <stem>down</stem>
        <staff>2</staff>
      </note>
      <note print-object="no" print-spacing="no">
        <chord/>
        <pitch>
          <step>D</step>
          <octave>4</octave>
        </pitch>
        <duration>18</duration>
        <voice>4</voice>
        <type>32nd</type>
        <dot/>
        <stem>down</stem>
        <staff>2</staff>
      </note>
      <note print-object="no" print-spacing="no">
        <pitch>
          <step>F</step>
          <octave>4</octave>
        </pitch>
        <duration>18</duration>
        <voice>4</voice>
        <type>32nd</type>
        <dot/>
        <stem>down</stem>
        <staff>2</staff>
        <beam number="1">continue</beam>
        <beam number="2">continue</beam>
        <beam number="3">continue</beam>
      </note>
      <note print-object="no" print-spacing="no">
        <pitch>
          <step>G</step>
          <octave>3</octave>
        </pitch>
        <duration>18</duration>
        <voice>4</voice>
        <type>32nd</type>
        <dot/>
        <stem>down</stem>
        <staff>2</staff>
        <beam number="1">continue</beam>
        <beam number="2">continue</beam>
        <beam number="3">continue</beam>
      </note>
      <note print-object="no" print-spacing="no">
        <chord/>
        <pitch>
          <step>A</step>
          <octave>3</octave>
        </pitch>
        <duration>18</duration>
        <voice>4</voice>
        <type>32nd</type>
        <dot/>
        <stem>down</stem>
        <staff>2</staff>
      </note>
      <note print-object="no" print-spacing="no">
        <chord/>
        <pitch>
          <step>D</step>
          <octave>4</octave>
        </pitch>
        <duration>18</duration>
        <voice>4</voice>
        <type>32nd</type>
        <dot/>
        <stem>down</stem>
        <staff>2</staff>
      </note>
      <note print-object="no" print-spacing="no">
        <pitch>
          <step>F</step>
          <octave>4</octave>
        </pitch>
        <duration>18</duration>
        <voice>4</voice>
        <type>32nd</type>
        <dot/>
        <stem>down</stem>
        <staff>2</staff>
        <beam number="1">continue</beam>
        <beam number="2">continue</beam>
        <beam number="3">continue</beam>
      </note>
      <note print-object="no" print-spacing="no">
        <pitch>
          <step>G</step>
          <octave>3</octave>
        </pitch>
        <duration>18</duration>
        <voice>4</voice>
        <type>32nd</type>
        <dot/>
        <stem>down</stem>
        <staff>2</staff>
        <beam number="1">continue</beam>
        <beam number="2">continue</beam>
        <beam number="3">continue</beam>
      </note>
      <note print-object="no" print-spacing="no">
        <chord/>
        <pitch>
          <step>A</step>
          <octave>3</octave>
        </pitch>
        <duration>18</duration>
        <voice>4</voice>
        <type>32nd</type>
        <dot/>
        <stem>down</stem>
        <staff>2</staff>
      </note>
      <note print-object="no" print-spacing="no">
        <chord/>
        <pitch>
          <step>D</step>
          <octave>4</octave>
        </pitch>
        <duration>18</duration>
        <voice>4</voice>
        <type>32nd</type>
        <dot/>
        <stem>down</stem>
        <staff>2</staff>
      </note>
      <note print-object="no" print-spacing="no">
        <pitch>
          <step>F</step>
          <octave>4</octave>
        </pitch>
        <duration>18</duration>
        <voice>4</voice>
        <type>32nd</type>
        <dot/>
        <stem>down</stem>
        <staff>2</staff>
        <beam number="1">end</beam>
        <beam number="2">end</beam>
        <beam number="3">end</beam>
      </note>
    </measure>
    <!--=======================================================-->
    <measure number="5" width="357">
      <direction placement="below">
        <direction-type>
          <dynamics default-x="16" default-y="-73" halign="center">
            <ff/>
          </dynamics>
        </direction-type>
        <staff>1</staff>
        <sound dynamics="112"/>
      </direction>
      <note default-x="16">
        <pitch>
          <step>A</step>
          <octave>5</octave>
        </pitch>
        <duration>144</duration>
        <voice>1</voice>
        <type>quarter</type>
        <dot/>
        <stem default-y="-25.5">down</stem>
        <staff>1</staff>
      </note>
      <note default-x="16">
        <chord/>
        <pitch>
          <step>D</step>
          <octave>6</octave>
        </pitch>
        <duration>144</duration>
        <voice>1</voice>
        <type>quarter</type>
        <dot/>
        <stem>down</stem>
        <staff>1</staff>
      </note>
      <note default-x="16">
        <chord/>
        <pitch>
          <step>F</step>
          <octave>6</octave>
        </pitch>
        <duration>144</duration>
        <voice>1</voice>
        <type>quarter</type>
        <dot/>
        <stem>down</stem>
        <staff>1</staff>
      </note>
      <note default-x="16">
        <chord/>
        <pitch>
          <step>A</step>
          <octave>6</octave>
        </pitch>
        <duration>144</duration>
        <voice>1</voice>
        <type>quarter</type>
        <dot/>
        <stem>down</stem>
        <staff>1</staff>
      </note>
      <note default-x="208">
        <pitch>
          <step>D</step>
          <octave>6</octave>
        </pitch>
        <duration>48</duration>
        <voice>1</voice>
        <type>eighth</type>
        <stem default-y="-20">down</stem>
        <staff>1</staff>
        <beam number="1">begin</beam>
      </note>
      <note default-x="208">
        <chord/>
        <pitch>
          <step>F</step>
          <octave>6</octave>
        </pitch>
        <duration>48</duration>
        <voice>1</voice>
        <type>eighth</type>
        <stem>down</stem>
        <staff>1</staff>
      </note>
      <note default-x="258">
        <pitch>
          <step>B</step>
          <octave>5</octave>
        </pitch>
        <duration>72</duration>
        <voice>1</voice>
        <type>eighth</type>
        <dot/>
        <stem default-y="-21">down</stem>
        <staff>1</staff>
        <beam number="1">continue</beam>
      </note>
      <note default-x="258">
        <chord/>
        <pitch>
          <step>D</step>
          <octave>6</octave>
        </pitch>
        <duration>72</duration>
        <voice>1</voice>
        <type>eighth</type>
        <dot/>
        <stem>down</stem>
        <staff>1</staff>
      </note>
      <note default-x="325">
        <pitch>
          <step>A</step>
          <octave>5</octave>
        </pitch>
        <duration>24</duration>
        <voice>1</voice>
        <type>16th</type>
        <stem default-y="-22.5">down</stem>
        <staff>1</staff>
        <beam number="1">end</beam>
        <beam number="2">backward hook</beam>
      </note>
      <note default-x="325">
        <chord/>
        <pitch>
          <step>C</step>
          <octave>6</octave>
        </pitch>
        <duration>24</duration>
        <voice>1</voice>
        <type>16th</type>
        <stem>down</stem>
        <staff>1</staff>
      </note>
      <backup>
        <duration>288</duration>
      </backup>
      <note default-x="16">
        <pitch>
          <step>G</step>
          <octave>2</octave>
        </pitch>
        <duration>16</duration>
        <voice>3</voice>
        <type>16th</type>
        <time-modification>
          <actual-notes>6</actual-notes>
          <normal-notes>4</normal-notes>
        </time-modification>
        <stem default-y="-75">down</stem>
        <staff>2</staff>
        <beam number="1">begin</beam>
        <beam number="2">begin</beam>
        <notations>
          <tuplet number="1" placement="below" type="start"/>
        </notations>
      </note>
      <note default-x="40">
        <pitch>
          <step>B</step>
          <octave>2</octave>
        </pitch>
        <duration>16</duration>
        <voice>3</voice>
        <type>16th</type>
        <time-modification>
          <actual-notes>6</actual-notes>
          <normal-notes>4</normal-notes>
        </time-modification>
        <stem default-y="-75">down</stem>
        <staff>2</staff>
        <beam number="1">continue</beam>
        <beam number="2">continue</beam>
      </note>
      <note default-x="63">
        <pitch>
          <step>D</step>
          <octave>3</octave>
        </pitch>
        <duration>16</duration>
        <voice>3</voice>
        <type>16th</type>
        <time-modification>
          <actual-notes>6</actual-notes>
          <normal-notes>4</normal-notes>
        </time-modification>
        <stem default-y="-75">down</stem>
        <staff>2</staff>
        <beam number="1">continue</beam>
        <beam number="2">continue</beam>
      </note>
      <note default-x="87">
        <pitch>
          <step>A</step>
          <octave>3</octave>
        </pitch>
        <duration>16</duration>
        <voice>3</voice>
        <type>16th</type>
        <time-modification>
          <actual-notes>6</actual-notes>
          <normal-notes>4</normal-notes>
        </time-modification>
        <stem default-y="-75">down</stem>
        <staff>2</staff>
        <beam number="1">continue</beam>
        <beam number="2">continue</beam>
      </note>
      <note default-x="111">
        <pitch>
          <step>D</step>
          <octave>4</octave>
        </pitch>
        <duration>16</duration>
        <voice>3</voice>
        <type>16th</type>
        <time-modification>
          <actual-notes>6</actual-notes>
          <normal-notes>4</normal-notes>
        </time-modification>
        <stem default-y="-75">down</stem>
        <staff>2</staff>
        <beam number="1">continue</beam>
        <beam number="2">continue</beam>
      </note>
      <note default-x="134">
        <pitch>
          <step>D</step>
          <octave>4</octave>
        </pitch>
        <duration>16</duration>
        <voice>3</voice>
        <type>16th</type>
        <time-modification>
          <actual-notes>6</actual-notes>
          <normal-notes>4</normal-notes>
        </time-modification>
        <stem default-y="-75">down</stem>
        <staff>2</staff>
        <beam number="1">end</beam>
        <beam number="2">end</beam>
        <notations>
          <tuplet number="1" type="stop"/>
        </notations>
      </note>
      <note default-x="134">
        <chord/>
        <pitch>
          <step>F</step>
          <octave>4</octave>
        </pitch>
        <duration>16</duration>
        <voice>3</voice>
        <type>16th</type>
        <time-modification>
          <actual-notes>6</actual-notes>
          <normal-notes>4</normal-notes>
        </time-modification>
        <stem>down</stem>
        <staff>2</staff>
      </note>
      <note default-x="158">
        <pitch>
          <step>G</step>
          <octave>3</octave>
        </pitch>
        <duration>48</duration>
        <voice>3</voice>
        <type>eighth</type>
        <stem default-y="-40.5">down</stem>
        <staff>2</staff>
      </note>
      <note default-x="158">
        <chord/>
        <pitch>
          <step>B</step>
          <octave>3</octave>
        </pitch>
        <duration>48</duration>
        <voice>3</voice>
        <type>eighth</type>
        <stem>down</stem>
        <staff>2</staff>
      </note>
      <note default-x="158">
        <chord/>
        <pitch>
          <step>D</step>
          <octave>4</octave>
        </pitch>
        <duration>48</duration>
        <voice>3</voice>
        <type>eighth</type>
        <stem>down</stem>
        <staff>2</staff>
      </note>
      <note default-x="158">
        <chord/>
        <pitch>
          <step>F</step>
          <octave>4</octave>
        </pitch>
        <duration>48</duration>
        <voice>3</voice>
        <type>eighth</type>
        <stem>down</stem>
        <staff>2</staff>
      </note>
      <note default-x="208">
        <rest/>
        <duration>48</duration>
        <voice>3</voice>
        <type>eighth</type>
        <staff>2</staff>
      </note>
      <note default-x="258">
        <rest/>
        <duration>96</duration>
        <voice>3</voice>
        <type>quarter</type>
        <staff>2</staff>
      </note>
    </measure>
    <!--=======================================================-->
    <measure number="6" width="397">
      <print new-system="yes">
        <system-layout>
          <system-distance>114</system-distance>
        </system-layout>
      </print>
      <note default-x="56">
        <pitch>
          <step>A</step>
          <octave>5</octave>
        </pitch>
        <duration>48</duration>
        <voice>1</voice>
        <type>eighth</type>
        <stem default-y="-45">down</stem>
        <staff>1</staff>
        <beam number="1">begin</beam>
      </note>
      <note default-x="56">
        <chord/>
        <pitch>
          <step>C</step>
          <octave>6</octave>
        </pitch>
        <duration>48</duration>
        <voice>1</voice>
        <type>eighth</type>
        <stem>down</stem>
        <staff>1</staff>
      </note>
      <note default-x="112">
        <pitch>
          <step>D</step>
          <octave>5</octave>
        </pitch>
        <duration>48</duration>
        <voice>1</voice>
        <type>eighth</type>
        <stem default-y="-45">down</stem>
        <staff>1</staff>
        <beam number="1">continue</beam>
      </note>
      <note default-x="112">
        <chord/>
        <pitch>
          <step>F</step>
          <octave>5</octave>
        </pitch>
        <duration>48</duration>
        <voice>1</voice>
        <type>eighth</type>
        <stem>down</stem>
        <staff>1</staff>
      </note>
      <note default-x="169">
        <pitch>
          <step>G</step>
          <octave>5</octave>
        </pitch>
        <duration>48</duration>
        <voice>1</voice>
        <type>eighth</type>
        <stem default-y="-45">down</stem>
        <staff>1</staff>
        <beam number="1">end</beam>
      </note>
      <note default-x="169">
        <chord/>
        <pitch>
          <step>B</step>
          <octave>5</octave>
        </pitch>
        <duration>48</duration>
        <voice>1</voice>
        <type>eighth</type>
        <stem>down</stem>
        <staff>1</staff>
      </note>
      <note default-x="226">
        <pitch>
          <step>F</step>
          <octave>5</octave>
        </pitch>
        <duration>48</duration>
        <voice>1</voice>
        <type>eighth</type>
        <stem default-y="-50">down</stem>
        <staff>1</staff>
        <beam number="1">begin</beam>
      </note>
      <note default-x="226">
        <chord/>
        <pitch>
          <step>A</step>
          <octave>5</octave>
        </pitch>
        <duration>48</duration>
        <voice>1</voice>
        <type>eighth</type>
        <stem>down</stem>
        <staff>1</staff>
      </note>
      <note default-x="283">
        <pitch>
          <step>C</step>
          <alter>1</alter>
          <octave>5</octave>
        </pitch>
        <duration>48</duration>
        <voice>1</voice>
        <type>eighth</type>
        <accidental>sharp</accidental>
        <stem default-y="-50">down</stem>
        <staff>1</staff>
        <beam number="1">continue</beam>
      </note>
      <note default-x="283">
        <chord/>
        <pitch>
          <step>E</step>
          <octave>5</octave>
        </pitch>
        <duration>48</duration>
        <voice>1</voice>
        <type>eighth</type>
        <stem>down</stem>
        <staff>1</staff>
      </note>
      <note default-x="339">
        <pitch>
          <step>D</step>
          <octave>5</octave>
        </pitch>
        <duration>48</duration>
        <voice>1</voice>
        <type>eighth</type>
        <stem default-y="-50">down</stem>
        <staff>1</staff>
        <beam number="1">end</beam>
      </note>
      <note default-x="339">
        <chord/>
        <pitch>
          <step>F</step>
          <octave>5</octave>
        </pitch>
        <duration>48</duration>
        <voice>1</voice>
        <type>eighth</type>
        <stem>down</stem>
        <staff>1</staff>
      </note>
      <backup>
        <duration>288</duration>
      </backup>
      <note>
        <rest measure="yes"/>
        <duration>288</duration>
        <voice>3</voice>
        <staff>2</staff>
      </note>
    </measure>
    <!--=======================================================-->
    <measure number="7" width="345">
      <note default-x="16">
        <pitch>
          <step>F</step>
          <octave>5</octave>
        </pitch>
        <duration>144</duration>
        <voice>1</voice>
        <type>quarter</type>
        <dot/>
        <stem default-y="-35">down</stem>
        <staff>1</staff>
      </note>
      <note default-x="16">
        <chord/>
        <pitch>
          <step>A</step>
          <octave>5</octave>
        </pitch>
        <duration>144</duration>
        <voice>1</voice>
        <type>quarter</type>
        <dot/>
        <stem>down</stem>
        <staff>1</staff>
      </note>
      <direction placement="below">
        <direction-type>
          <words default-y="-73" font-style="italic">dim.</words>
        </direction-type>
        <staff>1</staff>
      </direction>
      <note default-x="154">
        <pitch>
          <step>C</step>
          <alter>1</alter>
          <octave>5</octave>
        </pitch>
        <duration>48</duration>
        <voice>1</voice>
        <type>eighth</type>
        <accidental>sharp</accidental>
        <stem default-y="-50">down</stem>
        <staff>1</staff>
        <beam number="1">begin</beam>
      </note>
      <note default-x="154">
        <chord/>
        <pitch>
          <step>E</step>
          <octave>5</octave>
        </pitch>
        <duration>48</duration>
        <voice>1</voice>
        <type>eighth</type>
        <stem>down</stem>
        <staff>1</staff>
      </note>
      <note default-x="218">
        <pitch>
          <step>D</step>
          <octave>5</octave>
        </pitch>
        <duration>72</duration>
        <voice>1</voice>
        <type>eighth</type>
        <dot/>
        <stem default-y="-48">down</stem>
        <staff>1</staff>
        <beam number="1">continue</beam>
      </note>
      <note default-x="218">
        <chord/>
        <pitch>
          <step>F</step>
          <octave>5</octave>
        </pitch>
        <duration>72</duration>
        <voice>1</voice>
        <type>eighth</type>
        <dot/>
        <stem>down</stem>
        <staff>1</staff>
      </note>
      <note default-x="304">
        <pitch>
          <step>D</step>
          <alter>1</alter>
          <octave>5</octave>
        </pitch>
        <duration>24</duration>
        <voice>1</voice>
        <type>16th</type>
        <accidental>sharp</accidental>
        <stem default-y="-45">down</stem>
        <staff>1</staff>
        <beam number="1">end</beam>
        <beam number="2">backward hook</beam>
      </note>
      <note default-x="304">
        <chord/>
        <pitch>
          <step>F</step>
          <alter>1</alter>
          <octave>5</octave>
        </pitch>
        <duration>24</duration>
        <voice>1</voice>
        <type>16th</type>
        <accidental>sharp</accidental>
        <stem>down</stem>
        <staff>1</staff>
      </note>
      <backup>
        <duration>288</duration>
      </backup>
      <note>
        <rest measure="yes"/>
        <duration>288</duration>
        <voice>3</voice>
        <staff>2</staff>
      </note>
    </measure>
    <!--=======================================================-->
    <measure number="8" width="242">
      <note default-x="17">
        <pitch>
          <step>C</step>
          <octave>6</octave>
        </pitch>
        <duration>192</duration>
        <voice>1</voice>
        <type>half</type>
        <stem default-y="49">up</stem>
        <staff>1</staff>
      </note>
      <note default-x="150">
        <pitch>
          <step>B</step>
          <octave>5</octave>
        </pitch>
        <duration>96</duration>
        <voice>1</voice>
        <type>quarter</type>
        <stem default-y="44">up</stem>
        <staff>1</staff>
      </note>
      <backup>
        <duration>288</duration>
      </backup>
      <note default-x="17">
        <pitch>
          <step>A</step>
          <octave>5</octave>
        </pitch>
        <duration>288</duration>
        <voice>2</voice>
        <type>half</type>
        <dot/>
        <stem default-y="-25">down</stem>
        <staff>1</staff>
      </note>
      <backup>
        <duration>288</duration>
      </backup>
      <note>
        <rest measure="yes"/>
        <duration>288</duration>
        <voice>3</voice>
        <staff>2</staff>
      </note>
      <barline location="right">
        <bar-style>light-heavy</bar-style>
      </barline>
    </measure>
  </part>
  <!--=========================================================-->
</score-partwise>
