<?xml version="1.0" encoding="UTF-8" standalone="no"?>
<!DOCTYPE score-partwise PUBLIC "-//Recordare//DTD MusicXML 3.0 Partwise//EN" "http://www.musicxml.org/dtds/partwise.dtd">
<score-partwise version="3.0">
  <movement-title>music246</movement-title>
  <identification>
    <rights>©</rights>
    <encoding>
      <software>Finale 2014 for Windows</software>
      <software>Dolet Light for Finale 2014</software>
      <encoding-date>2014-01-04</encoding-date>
      <supports attribute="new-system" element="print" type="yes" value="yes"/>
      <supports attribute="new-page" element="print" type="yes" value="yes"/>
      <supports element="accidental" type="yes"/>
      <supports element="beam" type="yes"/>
      <supports element="stem" type="yes"/>
    </encoding>
  </identification>
  <defaults>
    <scaling>
      <millimeters>7.2319</millimeters>
      <tenths>40</tenths>
    </scaling>
    <page-layout>
      <page-height>1545</page-height>
      <page-width>1194</page-width>
      <page-margins type="both">
        <left-margin>140</left-margin>
        <right-margin>70</right-margin>
        <top-margin>70</top-margin>
        <bottom-margin>70</bottom-margin>
      </page-margins>
    </page-layout>
    <system-layout>
      <system-margins>
        <left-margin>0</left-margin>
        <right-margin>0</right-margin>
      </system-margins>
      <system-distance>121</system-distance>
      <top-system-distance>70</top-system-distance>
    </system-layout>
    <staff-layout>
      <staff-distance>80</staff-distance>
    </staff-layout>
    <appearance>
      <line-width type="stem">0.7487</line-width>
      <line-width type="beam">5</line-width>
      <line-width type="staff">0.7487</line-width>
      <line-width type="light barline">0.7487</line-width>
      <line-width type="heavy barline">5</line-width>
      <line-width type="leger">0.7487</line-width>
      <line-width type="ending">0.7487</line-width>
      <line-width type="wedge">0.7487</line-width>
      <line-width type="enclosure">0.7487</line-width>
      <line-width type="tuplet bracket">0.7487</line-width>
      <note-size type="grace">60</note-size>
      <note-size type="cue">60</note-size>
      <distance type="hyphen">120</distance>
      <distance type="beam">8</distance>
    </appearance>
    <music-font font-family="Maestro,engraved" font-size="20.5"/>
    <word-font font-family="Times New Roman" font-size="10.25"/>
  </defaults>
  <credit page="1">
    <credit-type>title</credit-type>
    <credit-words default-x="632" default-y="1475" font-size="24" justify="center" valign="top">music246</credit-words>
  </credit>
  <credit page="1">
    <credit-type>rights</credit-type>
    <credit-words default-x="632" default-y="53" font-size="10" justify="center" valign="bottom">©</credit-words>
  </credit>
  <credit page="1">
    <credit-words default-x="140" default-y="1478" font-size="12" valign="top">Score</credit-words>
  </credit>
  <part-list>
    <score-part id="P1">
      <part-name print-object="no">MusicXML Part</part-name>
      <score-instrument id="P1-I1">
        <instrument-name>ARIA Player</instrument-name>
        <virtual-instrument>
          <virtual-library>Garritan Instruments for Finale</virtual-library>
          <virtual-name>005. Keyboards/Steinway Piano</virtual-name>
        </virtual-instrument>
      </score-instrument>
      <midi-device>ARIA Player</midi-device>
      <midi-instrument id="P1-I1">
        <midi-channel>1</midi-channel>
        <midi-program>1</midi-program>
        <volume>80</volume>
        <pan>0</pan>
      </midi-instrument>
    </score-part>
  </part-list>
  <!--=========================================================-->
  <part id="P1">
    <measure number="1" width="297">
      <print>
        <system-layout>
          <system-margins>
            <left-margin>70</left-margin>
            <right-margin>0</right-margin>
          </system-margins>
          <top-system-distance>177</top-system-distance>
        </system-layout>
        <measure-numbering>system</measure-numbering>
      </print>
      <attributes>
        <divisions>8</divisions>
        <key>
          <fifths>-2</fifths>
          <mode>major</mode>
        </key>
        <time>
          <beats>4</beats>
          <beat-type>4</beat-type>
        </time>
        <staves>2</staves>
        <clef number="1">
          <sign>G</sign>
          <line>2</line>
        </clef>
        <clef number="2">
          <sign>F</sign>
          <line>4</line>
        </clef>
      </attributes>
      <sound tempo="72"/>
      <note>
        <rest measure="yes"/>
        <duration>32</duration>
        <voice>1</voice>
        <staff>1</staff>
      </note>
      <backup>
        <duration>32</duration>
      </backup>
      <direction placement="above">
        <direction-type>
          <dynamics default-x="91" default-y="38" halign="center">
            <p/>
          </dynamics>
        </direction-type>
        <staff>2</staff>
        <sound dynamics="54"/>
      </direction>
      <note default-x="122">
        <pitch>
          <step>D</step>
          <octave>4</octave>
        </pitch>
        <duration>14</duration>
        <voice>3</voice>
        <type>quarter</type>
        <dot/>
        <dot/>
        <stem default-y="44">up</stem>
        <staff>2</staff>
        <notations>
          <slur number="1" placement="above" type="start"/>
        </notations>
      </note>
      <note default-x="177">
        <pitch>
          <step>C</step>
          <octave>4</octave>
        </pitch>
        <duration>2</duration>
        <voice>3</voice>
        <type>16th</type>
        <stem default-y="46">up</stem>
        <staff>2</staff>
      </note>
      <note default-x="206">
        <pitch>
          <step>B</step>
          <alter>-1</alter>
          <octave>3</octave>
        </pitch>
        <duration>14</duration>
        <voice>3</voice>
        <type>quarter</type>
        <dot/>
        <dot/>
        <stem default-y="34">up</stem>
        <staff>2</staff>
      </note>
      <note default-x="260">
        <pitch>
          <step>A</step>
          <octave>3</octave>
        </pitch>
        <duration>1</duration>
        <voice>3</voice>
        <type>32nd</type>
        <stem default-y="43">up</stem>
        <staff>2</staff>
        <beam number="1">begin</beam>
        <beam number="2">begin</beam>
        <beam number="3">begin</beam>
      </note>
      <note default-x="279">
        <pitch>
          <step>B</step>
          <alter>-1</alter>
          <octave>3</octave>
        </pitch>
        <duration>1</duration>
        <voice>3</voice>
        <type>32nd</type>
        <stem default-y="47.5">up</stem>
        <staff>2</staff>
        <beam number="1">end</beam>
        <beam number="2">end</beam>
        <beam number="3">end</beam>
      </note>
      <backup>
        <duration>32</duration>
      </backup>
      <note default-x="122">
        <pitch>
          <step>D</step>
          <octave>3</octave>
        </pitch>
        <duration>14</duration>
        <voice>4</voice>
        <type>quarter</type>
        <dot/>
        <dot/>
        <stem default-y="-55">down</stem>
        <staff>2</staff>
        <notations>
          <slur number="2" placement="below" type="start"/>
        </notations>
      </note>
      <note default-x="177">
        <pitch>
          <step>C</step>
          <octave>3</octave>
        </pitch>
        <duration>2</duration>
        <voice>4</voice>
        <type>16th</type>
        <stem default-y="-60">down</stem>
        <staff>2</staff>
      </note>
      <note default-x="206">
        <pitch>
          <step>B</step>
          <alter>-1</alter>
          <octave>2</octave>
        </pitch>
        <duration>14</duration>
        <voice>4</voice>
        <type>quarter</type>
        <dot/>
        <dot/>
        <stem default-y="-59">down</stem>
        <staff>2</staff>
      </note>
      <note default-x="260">
        <pitch>
          <step>A</step>
          <octave>2</octave>
        </pitch>
        <duration>1</duration>
        <voice>4</voice>
        <type>32nd</type>
        <stem default-y="-77">down</stem>
        <staff>2</staff>
        <beam number="1">begin</beam>
        <beam number="2">begin</beam>
        <beam number="3">begin</beam>
      </note>
      <note default-x="279">
        <pitch>
          <step>B</step>
          <alter>-1</alter>
          <octave>2</octave>
        </pitch>
        <duration>1</duration>
        <voice>4</voice>
        <type>32nd</type>
        <stem default-y="-72.5">down</stem>
        <staff>2</staff>
        <beam number="1">end</beam>
        <beam number="2">end</beam>
        <beam number="3">end</beam>
      </note>
    </measure>
    <!--=======================================================-->
    <measure number="2" width="218">
      <note default-x="14">
        <rest/>
        <duration>16</duration>
        <voice>1</voice>
        <type>half</type>
        <staff>1</staff>
      </note>
      <direction placement="below">
        <direction-type>
          <dynamics default-x="107" default-y="-78" halign="center">
            <pp/>
          </dynamics>
        </direction-type>
        <staff>1</staff>
        <sound dynamics="40"/>
      </direction>
      <note default-x="110">
        <rest/>
        <duration>8</duration>
        <voice>1</voice>
        <type>quarter</type>
        <staff>1</staff>
      </note>
      <note default-x="147">
        <rest/>
        <duration>4</duration>
        <voice>1</voice>
        <type>eighth</type>
        <staff>1</staff>
      </note>
      <note default-x="170">
        <rest/>
        <duration>2</duration>
        <voice>1</voice>
        <type>16th</type>
        <staff>1</staff>
      </note>
      <note default-x="188">
        <pitch>
          <step>D</step>
          <octave>4</octave>
        </pitch>
        <duration>2</duration>
        <voice>1</voice>
        <type>16th</type>
        <stem default-y="-9.5">up</stem>
        <staff>1</staff>
        <notations>
          <slur number="3" placement="above" type="start"/>
        </notations>
      </note>
      <backup>
        <duration>32</duration>
      </backup>
      <note default-x="15">
        <pitch>
          <step>A</step>
          <octave>3</octave>
        </pitch>
        <duration>14</duration>
        <voice>3</voice>
        <type>quarter</type>
        <dot/>
        <dot/>
        <stem default-y="28.5">up</stem>
        <staff>2</staff>
      </note>
      <note default-x="70">
        <pitch>
          <step>G</step>
          <octave>3</octave>
        </pitch>
        <duration>2</duration>
        <voice>3</voice>
        <type>16th</type>
        <stem default-y="30.5">up</stem>
        <staff>2</staff>
      </note>
      <note default-x="110">
        <pitch>
          <step>F</step>
          <octave>3</octave>
        </pitch>
        <duration>14</duration>
        <voice>3</voice>
        <type>quarter</type>
        <dot/>
        <dot/>
        <stem default-y="44">up</stem>
        <staff>2</staff>
        <notations>
          <slur number="1" type="stop"/>
        </notations>
      </note>
      <note default-x="110">
        <chord/>
        <pitch>
          <step>A</step>
          <alter>-1</alter>
          <octave>3</octave>
        </pitch>
        <duration>14</duration>
        <voice>3</voice>
        <type>quarter</type>
        <dot/>
        <dot/>
        <accidental>flat</accidental>
        <stem>up</stem>
        <staff>2</staff>
      </note>
      <note default-x="110">
        <chord/>
        <pitch>
          <step>D</step>
          <octave>4</octave>
        </pitch>
        <duration>14</duration>
        <voice>3</voice>
        <type>quarter</type>
        <dot/>
        <dot/>
        <stem>up</stem>
        <staff>2</staff>
      </note>
      <note default-x="188">
        <pitch>
          <step>D</step>
          <octave>3</octave>
        </pitch>
        <duration>2</duration>
        <voice>3</voice>
        <type>16th</type>
        <stem default-y="15.5">up</stem>
        <staff>2</staff>
        <notations>
          <slur number="1" placement="below" type="start"/>
        </notations>
      </note>
      <backup>
        <duration>32</duration>
      </backup>
      <note default-x="15">
        <pitch>
          <step>A</step>
          <octave>2</octave>
        </pitch>
        <duration>14</duration>
        <voice>4</voice>
        <type>quarter</type>
        <dot/>
        <dot/>
        <stem default-y="-63.5">down</stem>
        <staff>2</staff>
      </note>
      <note default-x="70">
        <pitch>
          <step>G</step>
          <octave>2</octave>
        </pitch>
        <duration>2</duration>
        <voice>4</voice>
        <type>16th</type>
        <stem default-y="-75">down</stem>
        <staff>2</staff>
      </note>
      <note default-x="110">
        <pitch>
          <step>B</step>
          <octave>2</octave>
        </pitch>
        <duration>14</duration>
        <voice>4</voice>
        <type>quarter</type>
        <dot/>
        <dot/>
        <accidental>natural</accidental>
        <stem default-y="-59">down</stem>
        <staff>2</staff>
        <notations>
          <slur number="2" type="stop"/>
        </notations>
      </note>
      <note default-x="188">
        <pitch>
          <step>D</step>
          <octave>3</octave>
        </pitch>
        <duration>2</duration>
        <voice>4</voice>
        <type>16th</type>
        <stem default-y="-55">down</stem>
        <staff>2</staff>
      </note>
    </measure>
    <!--=======================================================-->
    <measure number="3" width="200">
      <direction placement="below">
        <direction-type>
          <wedge default-y="-75" spread="0" type="crescendo"/>
        </direction-type>
        <staff>1</staff>
      </direction>
      <note default-x="14">
        <pitch>
          <step>E</step>
          <alter>-1</alter>
          <octave>4</octave>
        </pitch>
        <duration>14</duration>
        <voice>1</voice>
        <type>quarter</type>
        <dot/>
        <dot/>
        <stem default-y="-4.5">up</stem>
        <staff>1</staff>
      </note>
      <note default-x="69">
        <pitch>
          <step>D</step>
          <octave>4</octave>
        </pitch>
        <duration>2</duration>
        <voice>1</voice>
        <type>16th</type>
        <stem default-y="-9.5">up</stem>
        <staff>1</staff>
      </note>
      <direction>
        <direction-type>
          <wedge spread="15" type="stop"/>
        </direction-type>
        <staff>1</staff>
      </direction>
      <direction placement="below">
        <direction-type>
          <wedge default-y="-75" relative-x="10" spread="15" type="diminuendo"/>
        </direction-type>
        <staff>1</staff>
      </direction>
      <note default-x="101">
        <pitch>
          <step>C</step>
          <octave>4</octave>
        </pitch>
        <duration>14</duration>
        <voice>1</voice>
        <type>quarter</type>
        <dot/>
        <dot/>
        <stem default-y="-14">up</stem>
        <staff>1</staff>
      </note>
      <note default-x="155">
        <pitch>
          <step>B</step>
          <alter>-1</alter>
          <octave>3</octave>
        </pitch>
        <duration>1</duration>
        <voice>1</voice>
        <type>32nd</type>
        <stem default-y="-20">up</stem>
        <staff>1</staff>
        <beam number="1">begin</beam>
        <beam number="2">begin</beam>
        <beam number="3">begin</beam>
      </note>
      <note default-x="179">
        <pitch>
          <step>C</step>
          <octave>4</octave>
        </pitch>
        <duration>1</duration>
        <voice>1</voice>
        <type>32nd</type>
        <stem default-y="-17">up</stem>
        <staff>1</staff>
        <beam number="1">end</beam>
        <beam number="2">end</beam>
        <beam number="3">end</beam>
      </note>
      <direction>
        <direction-type>
          <wedge spread="0" type="stop"/>
        </direction-type>
        <staff>1</staff>
      </direction>
      <backup>
        <duration>32</duration>
      </backup>
      <note default-x="14">
        <pitch>
          <step>E</step>
          <alter>-1</alter>
          <octave>3</octave>
        </pitch>
        <duration>14</duration>
        <voice>3</voice>
        <type>quarter</type>
        <dot/>
        <dot/>
        <stem default-y="-50.5">down</stem>
        <staff>2</staff>
      </note>
      <note default-x="69">
        <pitch>
          <step>D</step>
          <octave>3</octave>
        </pitch>
        <duration>2</duration>
        <voice>3</voice>
        <type>16th</type>
        <stem default-y="-55">down</stem>
        <staff>2</staff>
      </note>
      <note default-x="101">
        <pitch>
          <step>C</step>
          <octave>3</octave>
        </pitch>
        <duration>14</duration>
        <voice>3</voice>
        <type>quarter</type>
        <dot/>
        <dot/>
        <stem default-y="10.5">up</stem>
        <staff>2</staff>
      </note>
      <note default-x="155">
        <pitch>
          <step>B</step>
          <alter>-1</alter>
          <octave>2</octave>
        </pitch>
        <duration>1</duration>
        <voice>3</voice>
        <type>32nd</type>
        <stem default-y="12.5">up</stem>
        <staff>2</staff>
        <beam number="1">begin</beam>
        <beam number="2">begin</beam>
        <beam number="3">begin</beam>
      </note>
      <note default-x="179">
        <pitch>
          <step>C</step>
          <octave>3</octave>
        </pitch>
        <duration>1</duration>
        <voice>3</voice>
        <type>32nd</type>
        <stem default-y="17">up</stem>
        <staff>2</staff>
        <beam number="1">end</beam>
        <beam number="2">end</beam>
        <beam number="3">end</beam>
      </note>
    </measure>
    <!--=======================================================-->
    <measure number="4" width="197">
      <note default-x="16">
        <pitch>
          <step>B</step>
          <alter>-1</alter>
          <octave>3</octave>
        </pitch>
        <duration>14</duration>
        <voice>1</voice>
        <type>quarter</type>
        <dot/>
        <dot/>
        <stem default-y="-20">up</stem>
        <staff>1</staff>
      </note>
      <note default-x="71">
        <pitch>
          <step>A</step>
          <octave>3</octave>
        </pitch>
        <duration>2</duration>
        <voice>1</voice>
        <type>16th</type>
        <stem default-y="-20">up</stem>
        <staff>1</staff>
      </note>
      <direction placement="below">
        <direction-type>
          <dynamics default-x="112" default-y="-105" halign="center">
            <pp/>
          </dynamics>
        </direction-type>
        <staff>1</staff>
        <sound dynamics="40"/>
      </direction>
      <note default-x="112">
        <pitch>
          <step>F</step>
          <alter>1</alter>
          <octave>3</octave>
        </pitch>
        <duration>14</duration>
        <voice>1</voice>
        <type>quarter</type>
        <dot/>
        <dot/>
        <accidental>sharp</accidental>
        <stem default-y="-4.5">up</stem>
        <staff>1</staff>
        <notations>
          <slur number="3" type="stop"/>
        </notations>
      </note>
      <note default-x="112">
        <chord/>
        <pitch>
          <step>A</step>
          <octave>3</octave>
        </pitch>
        <duration>14</duration>
        <voice>1</voice>
        <type>quarter</type>
        <dot/>
        <dot/>
        <stem>up</stem>
        <staff>1</staff>
      </note>
      <note default-x="112">
        <chord/>
        <pitch>
          <step>E</step>
          <alter>-1</alter>
          <octave>4</octave>
        </pitch>
        <duration>14</duration>
        <voice>1</voice>
        <type>quarter</type>
        <dot/>
        <dot/>
        <stem>up</stem>
        <staff>1</staff>
      </note>
      <note default-x="167">
        <pitch>
          <step>G</step>
          <alter>-1</alter>
          <octave>4</octave>
        </pitch>
        <duration>2</duration>
        <voice>1</voice>
        <type>16th</type>
        <accidental>flat</accidental>
        <stem default-y="6">up</stem>
        <staff>1</staff>
        <notations>
          <slur number="2" placement="above" type="start"/>
        </notations>
      </note>
      <backup>
        <duration>32</duration>
      </backup>
      <note default-x="16">
        <pitch>
          <step>B</step>
          <alter>-1</alter>
          <octave>2</octave>
        </pitch>
        <duration>14</duration>
        <voice>3</voice>
        <type>quarter</type>
        <dot/>
        <dot/>
        <stem default-y="6">up</stem>
        <staff>2</staff>
      </note>
      <note default-x="71">
        <pitch>
          <step>A</step>
          <octave>2</octave>
        </pitch>
        <duration>2</duration>
        <voice>3</voice>
        <type>16th</type>
        <stem default-y="0">up</stem>
        <staff>2</staff>
      </note>
      <note default-x="112">
        <pitch>
          <step>C</step>
          <octave>3</octave>
        </pitch>
        <duration>14</duration>
        <voice>3</voice>
        <type>quarter</type>
        <dot/>
        <dot/>
        <stem default-y="10.5">up</stem>
        <staff>2</staff>
        <notations>
          <slur number="1" type="stop"/>
        </notations>
      </note>
      <note default-x="167">
        <pitch>
          <step>G</step>
          <alter>-1</alter>
          <octave>3</octave>
        </pitch>
        <duration>2</duration>
        <voice>3</voice>
        <type>16th</type>
        <accidental>flat</accidental>
        <stem default-y="-40">down</stem>
        <staff>2</staff>
        <notations>
          <slur number="1" placement="below" type="start"/>
        </notations>
      </note>
    </measure>
    <!--=======================================================-->
    <measure number="5" width="302">
      <print new-system="yes">
        <system-layout>
          <system-distance>114</system-distance>
        </system-layout>
      </print>
      <note default-x="87">
        <pitch>
          <step>F</step>
          <octave>4</octave>
        </pitch>
        <duration>14</duration>
        <voice>1</voice>
        <type>quarter</type>
        <dot/>
        <dot/>
        <stem default-y="0.5">up</stem>
        <staff>1</staff>
      </note>
      <note default-x="161">
        <pitch>
          <step>E</step>
          <alter>-1</alter>
          <octave>4</octave>
        </pitch>
        <duration>2</duration>
        <voice>1</voice>
        <type>16th</type>
        <stem default-y="-4.5">up</stem>
        <staff>1</staff>
      </note>
      <direction placement="below">
        <direction-type>
          <wedge default-y="-70" spread="0" type="crescendo"/>
        </direction-type>
        <staff>1</staff>
      </direction>
      <note default-x="190">
        <pitch>
          <step>D</step>
          <octave>4</octave>
        </pitch>
        <duration>14</duration>
        <voice>1</voice>
        <type>quarter</type>
        <dot/>
        <dot/>
        <stem default-y="-9">up</stem>
        <staff>1</staff>
      </note>
      <note default-x="264">
        <pitch>
          <step>C</step>
          <octave>4</octave>
        </pitch>
        <duration>1</duration>
        <voice>1</voice>
        <type>32nd</type>
        <stem default-y="-7">up</stem>
        <staff>1</staff>
        <beam number="1">begin</beam>
        <beam number="2">begin</beam>
        <beam number="3">begin</beam>
      </note>
      <note default-x="284">
        <pitch>
          <step>D</step>
          <octave>4</octave>
        </pitch>
        <duration>1</duration>
        <voice>1</voice>
        <type>32nd</type>
        <stem default-y="-5">up</stem>
        <staff>1</staff>
        <beam number="1">end</beam>
        <beam number="2">end</beam>
        <beam number="3">end</beam>
      </note>
      <direction>
        <direction-type>
          <wedge spread="15" type="stop"/>
        </direction-type>
        <staff>1</staff>
      </direction>
      <backup>
        <duration>32</duration>
      </backup>
      <note default-x="87">
        <pitch>
          <step>F</step>
          <octave>3</octave>
        </pitch>
        <duration>14</duration>
        <voice>3</voice>
        <type>quarter</type>
        <dot/>
        <dot/>
        <stem default-y="-45.5">down</stem>
        <staff>2</staff>
      </note>
      <note default-x="161">
        <pitch>
          <step>E</step>
          <alter>-1</alter>
          <octave>3</octave>
        </pitch>
        <duration>2</duration>
        <voice>3</voice>
        <type>16th</type>
        <stem default-y="-50">down</stem>
        <staff>2</staff>
      </note>
      <note default-x="190">
        <pitch>
          <step>D</step>
          <octave>3</octave>
        </pitch>
        <duration>14</duration>
        <voice>3</voice>
        <type>quarter</type>
        <dot/>
        <dot/>
        <stem default-y="-55">down</stem>
        <staff>2</staff>
      </note>
      <note default-x="264">
        <pitch>
          <step>C</step>
          <octave>3</octave>
        </pitch>
        <duration>1</duration>
        <voice>3</voice>
        <type>32nd</type>
        <stem default-y="17.5">up</stem>
        <staff>2</staff>
        <beam number="1">begin</beam>
        <beam number="2">begin</beam>
        <beam number="3">begin</beam>
      </note>
      <note default-x="284">
        <pitch>
          <step>D</step>
          <octave>3</octave>
        </pitch>
        <duration>1</duration>
        <voice>3</voice>
        <type>32nd</type>
        <stem default-y="22.5">up</stem>
        <staff>2</staff>
        <beam number="1">end</beam>
        <beam number="2">end</beam>
        <beam number="3">end</beam>
      </note>
    </measure>
    <!--=======================================================-->
    <measure number="6" width="206">
      <direction placement="below">
        <direction-type>
          <wedge default-y="-68" spread="15" type="diminuendo"/>
        </direction-type>
        <staff>1</staff>
      </direction>
      <note default-x="16">
        <pitch>
          <step>C</step>
          <octave>4</octave>
        </pitch>
        <duration>14</duration>
        <voice>1</voice>
        <type>quarter</type>
        <dot/>
        <dot/>
        <stem default-y="-15">up</stem>
        <staff>1</staff>
      </note>
      <direction>
        <direction-type>
          <wedge relative-x="10" spread="0" type="stop"/>
        </direction-type>
        <staff>1</staff>
      </direction>
      <note default-x="87">
        <pitch>
          <step>B</step>
          <octave>3</octave>
        </pitch>
        <duration>2</duration>
        <voice>1</voice>
        <type>16th</type>
        <accidental>natural</accidental>
        <stem default-y="-19.5">up</stem>
        <staff>1</staff>
      </note>
      <direction placement="below">
        <direction-type>
          <dynamics default-x="130" default-y="-76" halign="center">
            <pp/>
          </dynamics>
        </direction-type>
        <staff>1</staff>
        <sound dynamics="40"/>
      </direction>
      <note default-x="128">
        <pitch>
          <step>E</step>
          <octave>4</octave>
        </pitch>
        <duration>16</duration>
        <tie type="start"/>
        <voice>1</voice>
        <type>half</type>
        <accidental>natural</accidental>
        <stem default-y="5">up</stem>
        <staff>1</staff>
        <notations>
          <tied orientation="over" type="start"/>
          <slur number="2" type="stop"/>
        </notations>
      </note>
      <note default-x="128">
        <chord/>
        <pitch>
          <step>G</step>
          <octave>4</octave>
        </pitch>
        <duration>16</duration>
        <tie type="start"/>
        <voice>1</voice>
        <type>half</type>
        <stem>up</stem>
        <staff>1</staff>
        <notations>
          <tied orientation="over" type="start"/>
        </notations>
      </note>
      <backup>
        <duration>32</duration>
      </backup>
      <note default-x="21">
        <rest>
          <display-step>B</display-step>
          <display-octave>4</display-octave>
        </rest>
        <duration>16</duration>
        <voice>2</voice>
        <type>half</type>
        <staff>1</staff>
      </note>
      <note default-x="128">
        <pitch>
          <step>B</step>
          <alter>-1</alter>
          <octave>3</octave>
        </pitch>
        <duration>16</duration>
        <tie type="start"/>
        <voice>2</voice>
        <type>half</type>
        <accidental>flat</accidental>
        <stem default-y="-83.5">down</stem>
        <staff>1</staff>
        <notations>
          <tied orientation="under" type="start"/>
        </notations>
      </note>
      <backup>
        <duration>32</duration>
      </backup>
      <note default-x="16">
        <pitch>
          <step>C</step>
          <octave>3</octave>
        </pitch>
        <duration>14</duration>
        <voice>3</voice>
        <type>quarter</type>
        <dot/>
        <dot/>
        <stem default-y="11">up</stem>
        <staff>2</staff>
      </note>
      <note default-x="87">
        <pitch>
          <step>B</step>
          <octave>2</octave>
        </pitch>
        <duration>2</duration>
        <voice>3</voice>
        <type>16th</type>
        <accidental>natural</accidental>
        <stem default-y="5">up</stem>
        <staff>2</staff>
      </note>
      <note default-x="128">
        <pitch>
          <step>C</step>
          <alter>1</alter>
          <octave>3</octave>
        </pitch>
        <duration>16</duration>
        <voice>3</voice>
        <type>half</type>
        <accidental>sharp</accidental>
        <stem default-y="11">up</stem>
        <staff>2</staff>
        <notations>
          <slur number="1" type="stop"/>
        </notations>
      </note>
      <backup>
        <duration>32</duration>
      </backup>
      <note default-x="15">
        <rest>
          <display-step>E</display-step>
          <display-octave>2</display-octave>
        </rest>
        <duration>16</duration>
        <voice>4</voice>
        <type>half</type>
        <staff>2</staff>
      </note>
      <note default-x="128">
        <pitch>
          <step>C</step>
          <alter>1</alter>
          <octave>3</octave>
        </pitch>
        <duration>16</duration>
        <tie type="start"/>
        <voice>4</voice>
        <type>half</type>
        <stem default-y="-54">down</stem>
        <staff>2</staff>
        <notations>
          <tied orientation="under" type="start"/>
        </notations>
      </note>
    </measure>
    <!--=======================================================-->
    <measure number="7" width="255">
      <note default-x="27">
        <pitch>
          <step>E</step>
          <octave>4</octave>
        </pitch>
        <duration>32</duration>
        <tie type="stop"/>
        <voice>1</voice>
        <type>whole</type>
        <staff>1</staff>
        <notations>
          <tied type="stop"/>
          <slur number="1" placement="above" type="start"/>
        </notations>
      </note>
      <note default-x="27">
        <chord/>
        <pitch>
          <step>G</step>
          <octave>4</octave>
        </pitch>
        <duration>32</duration>
        <tie type="stop"/>
        <voice>1</voice>
        <type>whole</type>
        <staff>1</staff>
        <notations>
          <tied type="stop"/>
        </notations>
      </note>
      <backup>
        <duration>32</duration>
      </backup>
      <note default-x="27">
        <pitch>
          <step>B</step>
          <alter>-1</alter>
          <octave>3</octave>
        </pitch>
        <duration>16</duration>
        <tie type="stop"/>
        <voice>2</voice>
        <type>half</type>
        <stem default-y="-83.5">down</stem>
        <staff>1</staff>
        <notations>
          <tied type="stop"/>
        </notations>
      </note>
      <note default-x="139">
        <rest>
          <display-step>C</display-step>
          <display-octave>4</display-octave>
        </rest>
        <duration>16</duration>
        <voice>2</voice>
        <type>half</type>
        <staff>1</staff>
      </note>
      <backup>
        <duration>32</duration>
      </backup>
      <note default-x="27">
        <rest>
          <display-step>C</display-step>
          <display-octave>4</display-octave>
        </rest>
        <duration>4</duration>
        <voice>3</voice>
        <type>eighth</type>
        <staff>2</staff>
      </note>
      <note default-x="55">
        <pitch>
          <step>F</step>
          <alter>1</alter>
          <octave>3</octave>
        </pitch>
        <duration>4</duration>
        <voice>3</voice>
        <type>eighth</type>
        <accidental>sharp</accidental>
        <stem default-y="30">up</stem>
        <staff>2</staff>
        <beam number="1">begin</beam>
        <notations>
          <slur number="2" placement="below" type="start"/>
        </notations>
      </note>
      <note default-x="84">
        <pitch>
          <step>G</step>
          <octave>3</octave>
        </pitch>
        <duration>4</duration>
        <voice>3</voice>
        <type>eighth</type>
        <stem default-y="33">up</stem>
        <staff>2</staff>
        <beam number="1">continue</beam>
      </note>
      <note default-x="112">
        <pitch>
          <step>A</step>
          <octave>3</octave>
        </pitch>
        <duration>4</duration>
        <voice>3</voice>
        <type>eighth</type>
        <stem default-y="35">up</stem>
        <staff>2</staff>
        <beam number="1">end</beam>
      </note>
      <note default-x="141">
        <pitch>
          <step>C</step>
          <octave>4</octave>
        </pitch>
        <duration>4</duration>
        <voice>3</voice>
        <type>eighth</type>
        <stem default-y="45">up</stem>
        <staff>2</staff>
        <beam number="1">begin</beam>
      </note>
      <note default-x="169">
        <pitch>
          <step>B</step>
          <alter>-1</alter>
          <octave>3</octave>
        </pitch>
        <duration>4</duration>
        <voice>3</voice>
        <type>eighth</type>
        <stem default-y="43.5">up</stem>
        <staff>2</staff>
        <beam number="1">continue</beam>
      </note>
      <note default-x="198">
        <pitch>
          <step>A</step>
          <octave>3</octave>
        </pitch>
        <duration>4</duration>
        <voice>3</voice>
        <type>eighth</type>
        <stem default-y="42">up</stem>
        <staff>2</staff>
        <beam number="1">continue</beam>
      </note>
      <note default-x="226">
        <pitch>
          <step>G</step>
          <octave>3</octave>
        </pitch>
        <duration>4</duration>
        <voice>3</voice>
        <type>eighth</type>
        <stem default-y="40">up</stem>
        <staff>2</staff>
        <beam number="1">end</beam>
        <notations>
          <slur number="2" type="stop"/>
        </notations>
      </note>
      <backup>
        <duration>32</duration>
      </backup>
      <note default-x="27">
        <pitch>
          <step>C</step>
          <alter>1</alter>
          <octave>3</octave>
        </pitch>
        <duration>32</duration>
        <tie type="stop"/>
        <voice>4</voice>
        <type>whole</type>
        <staff>2</staff>
        <notations>
          <tied type="stop"/>
        </notations>
      </note>
    </measure>
    <!--=======================================================-->
    <measure number="8" width="219">
      <note default-x="14">
        <pitch>
          <step>D</step>
          <octave>4</octave>
        </pitch>
        <duration>32</duration>
        <voice>1</voice>
        <type>whole</type>
        <staff>1</staff>
        <notations>
          <slur number="1" type="stop"/>
          <articulations>
            <accent default-x="0" default-y="-65" placement="below"/>
          </articulations>
        </notations>
      </note>
      <backup>
        <duration>32</duration>
      </backup>
      <direction placement="below">
        <direction-type>
          <dynamics default-x="14" default-y="-85" halign="center">
            <p/>
          </dynamics>
        </direction-type>
        <staff>2</staff>
        <sound dynamics="54"/>
      </direction>
      <note default-x="14">
        <pitch>
          <step>D</step>
          <octave>3</octave>
        </pitch>
        <duration>4</duration>
        <voice>3</voice>
        <type>eighth</type>
        <stem default-y="-55">down</stem>
        <staff>2</staff>
      </note>
      <note default-x="14">
        <chord/>
        <pitch>
          <step>G</step>
          <octave>3</octave>
        </pitch>
        <duration>4</duration>
        <voice>3</voice>
        <type>eighth</type>
        <stem>down</stem>
        <staff>2</staff>
      </note>
      <note default-x="14">
        <chord/>
        <pitch>
          <step>B</step>
          <alter>-1</alter>
          <octave>3</octave>
        </pitch>
        <duration>4</duration>
        <voice>3</voice>
        <type>eighth</type>
        <stem>down</stem>
        <staff>2</staff>
      </note>
      <note default-x="41">
        <rest/>
        <duration>4</duration>
        <voice>3</voice>
        <type>eighth</type>
        <staff>2</staff>
      </note>
      <note default-x="68">
        <rest/>
        <duration>8</duration>
        <voice>3</voice>
        <type>quarter</type>
        <staff>2</staff>
      </note>
      <note default-x="111">
        <pitch>
          <step>D</step>
          <octave>2</octave>
        </pitch>
        <duration>4</duration>
        <voice>3</voice>
        <type>eighth</type>
        <stem default-y="35.5">up</stem>
        <staff>2</staff>
      </note>
      <note default-x="111">
        <chord/>
        <pitch>
          <step>D</step>
          <octave>3</octave>
        </pitch>
        <duration>4</duration>
        <voice>3</voice>
        <type>eighth</type>
        <stem>up</stem>
        <staff>2</staff>
      </note>
      <note default-x="111">
        <chord/>
        <pitch>
          <step>F</step>
          <alter>1</alter>
          <octave>3</octave>
        </pitch>
        <duration>4</duration>
        <voice>3</voice>
        <type>eighth</type>
        <accidental>sharp</accidental>
        <stem>up</stem>
        <staff>2</staff>
      </note>
      <note default-x="111">
        <chord/>
        <pitch>
          <step>A</step>
          <octave>3</octave>
        </pitch>
        <duration>4</duration>
        <voice>3</voice>
        <type>eighth</type>
        <stem>up</stem>
        <staff>2</staff>
      </note>
      <note default-x="138">
        <rest/>
        <duration>4</duration>
        <voice>3</voice>
        <type>eighth</type>
        <staff>2</staff>
      </note>
      <note default-x="166">
        <rest/>
        <duration>8</duration>
        <voice>3</voice>
        <type>quarter</type>
        <staff>2</staff>
      </note>
      <barline location="right">
        <bar-style>light-heavy</bar-style>
      </barline>
    </measure>
  </part>
  <!--=========================================================-->
</score-partwise>
